<?xml version="1.0" encoding="UTF-8"?>
<svg id="_Слой_2" data-name="Слой 2" xmlns="http://www.w3.org/2000/svg" viewBox="0 0 70.92 46.64">
  <defs>
    <style>
      .cls-1 {
        fill: #343436;
      }
    </style>
  </defs>
  <g id="_настройки_" data-name="настройки +">
    <g>
      <path class="cls-1" d="M64.56,46.64H6.36c-3.51,0-6.36-2.85-6.36-6.36V6.36C0,2.85,2.85,0,6.36,0h58.2c3.51,0,6.36,2.85,6.36,6.36V25.9c0,.66-.54,1.2-1.2,1.2s-1.2-.54-1.2-1.2V6.36c0-2.18-1.77-3.96-3.96-3.96H6.36c-2.18,0-3.96,1.77-3.96,3.96V40.28c0,2.18,1.77,3.96,3.96,3.96h58.2c2.18,0,3.96-1.77,3.96-3.96v-5.3c0-.66,.54-1.2,1.2-1.2s1.2,.54,1.2,1.2v5.3c0,3.51-2.85,6.36-6.36,6.36Z"/>
      <rect class="cls-1" x="1.44" y="18.99" width="67.32" height="2.88"/>
      <rect class="cls-1" x="1.44" y="10.82" width="67.32" height="2.88"/>
      <path class="cls-1" d="M21.16,40.75H12.98c-.73,0-1.32-.59-1.32-1.32s.59-1.32,1.32-1.32h8.17c.73,0,1.32,.59,1.32,1.32s-.59,1.32-1.32,1.32Z"/>
      <path class="cls-1" d="M45.21,41.11h-15.42c-1.45,0-2.63-1.18-2.63-2.63v-4.6c0-1.45,1.18-2.63,2.63-2.63h15.42c1.45,0,2.63,1.18,2.63,2.63v4.6c0,1.45-1.18,2.63-2.63,2.63Zm-15.4-2.63h0Zm0-.02h15.4l-.02-4.58-15.4,.02,.02,4.57Z"/>
      <path class="cls-1" d="M58.54,41.11h-2.16c-2.72,0-4.93-2.21-4.93-4.93s2.21-4.93,4.93-4.93h2.16c2.72,0,4.93,2.21,4.93,4.93s-2.21,4.93-4.93,4.93Zm-2.16-7.21c-1.26,0-2.28,1.02-2.28,2.28s1.02,2.28,2.28,2.28h2.16c1.26,0,2.28-1.02,2.28-2.28s-1.02-2.28-2.28-2.28h-2.16Z"/>
      <circle class="cls-1" cx="69.72" cy="30.53" r="1.2"/>
    </g>
  </g>
</svg>