<svg xmlns="http://www.w3.org/2000/svg" viewBox="0 0 141.26 95.03"><defs><style>.cls-1{fill:#343436;}</style></defs><g id="Слой_2" data-name="Слой 2"><g id="основной"><path class="cls-1" d="M128.59,95H12.67A12.83,12.83,0,0,1,0,82.07V13A12.83,12.83,0,0,1,12.67,0H128.59a12.83,12.83,0,0,1,12.67,13v39.8a2.4,2.4,0,1,1-4.79,0V13a8,8,0,0,0-7.88-8.06H12.67A8,8,0,0,0,4.79,13V82.07a8,8,0,0,0,7.88,8.06H128.59a8,8,0,0,0,7.88-8.06V71.26a2.4,2.4,0,1,1,4.79,0V82.07A12.83,12.83,0,0,1,128.59,95Z"/><rect class="cls-1" x="2.87" y="38.7" width="134.08" height="5.88"/><rect class="cls-1" x="2.87" y="22.04" width="134.08" height="5.88"/><path class="cls-1" d="M42.14,83H25.86a2.7,2.7,0,0,1,0-5.39H42.14a2.7,2.7,0,0,1,0,5.39Z"/><path class="cls-1" d="M86.2,83h-23a4,4,0,0,1-3.92-4V72a4,4,0,0,1,3.92-4h23a4,4,0,0,1,3.92,4v7A4,4,0,0,1,86.2,83Zm-23-4Zm0,0h23l0-7-23,0Z"/><path class="cls-1" d="M116.6,83.76h-4.31c-5.41,0-9.82-3.54-9.82-7.88S106.88,68,112.29,68h4.31c5.41,0,9.82,3.54,9.82,7.89S122,83.76,116.6,83.76Zm-4.31-11.54c-2.51,0-4.55,1.64-4.55,3.66s2,3.65,4.55,3.65h4.31c2.51,0,4.55-1.64,4.55-3.65s-2-3.66-4.55-3.66Z"/><ellipse class="cls-1" cx="138.87" cy="62.21" rx="2.39" ry="2.45"/></g></g></svg>