<svg xmlns="http://www.w3.org/2000/svg" viewBox="0 0 108.03 106.43"><defs><style>.cls-1{fill:#343436;}</style></defs><g id="Слой_2" data-name="Слой 2"><g id="основной"><path class="cls-1" d="M105.13,46.32a2.89,2.89,0,0,1-1.85-.67L56.13,6.54a3.21,3.21,0,0,0-4.14,0L4.75,45.65a2.9,2.9,0,1,1-3.7-4.46L48.29,2.08a9.05,9.05,0,0,1,11.54,0L107,41.19a2.9,2.9,0,0,1-1.85,5.13Z"/><path class="cls-1" d="M97.27,106.43H9.93a2.9,2.9,0,0,1-2.9-2.9V57a2.9,2.9,0,0,1,5.8,0v43.61H94.37V38.43a2.9,2.9,0,0,1,5.8,0v65.1A2.9,2.9,0,0,1,97.27,106.43Z"/><path class="cls-1" d="M71.1,106.06H37.23a2.9,2.9,0,0,1-2.9-2.9V62a8.73,8.73,0,0,1,8.72-8.72H65.28A8.73,8.73,0,0,1,74,62v41.21A2.9,2.9,0,0,1,71.1,106.06Zm-31-5.8H68.21V62A2.93,2.93,0,0,0,65.28,59H43.05A2.93,2.93,0,0,0,40.13,62Z"/><circle class="cls-1" cx="50.54" cy="79.83" r="2.99"/><circle class="cls-1" cx="9.93" cy="48.18" r="2.99"/><path class="cls-1" d="M85.62,30.14a2.9,2.9,0,0,1-2.9-2.9V13.48a2.9,2.9,0,1,1,5.8,0V27.24A2.9,2.9,0,0,1,85.62,30.14Z"/></g></g></svg>