<?xml version="1.0" encoding="UTF-8"?>
<svg id="_Слой_2" data-name="Слой 2" xmlns="http://www.w3.org/2000/svg" viewBox="0 0 46.95 33.59">
  <defs>
    <style>
      .cls-1 {
        fill: #fff;
      }
    </style>
  </defs>
  <g id="_основной" data-name="основной">
    <g>
      <path class="cls-1" d="M23.47,7.64c-7.18,0-14.37,0-21.55,0-.19,0-.37,0-.56,.01-.7,.07-1.25,.62-1.35,1.32-.09,.64,.32,1.35,.97,1.56,.28,.09,.6,.11,.9,.11,14.4,0,28.8,0,43.21,0,.2,0,.41,0,.61-.04,.7-.12,1.22-.69,1.26-1.4,.04-.64-.38-1.28-1.03-1.47-.27-.08-.57-.1-.85-.1-7.2,0-14.4,0-21.6,0Zm0,18.31c7.25,0,14.5,0,21.76,0,1.01,0,1.7-.6,1.72-1.48,.02-.89-.69-1.52-1.72-1.53-.05,0-.1,0-.15,0-14.4,0-28.8,0-43.21,0-.2,0-.41,0-.61,.03-.7,.11-1.22,.69-1.26,1.39-.04,.64,.38,1.28,1.02,1.48,.27,.08,.57,.1,.85,.1,7.2,0,14.4,0,21.6,0ZM18.03,2.99c4.24,0,8.47,0,12.71,0,.2,0,.41,0,.61-.01,.7-.06,1.24-.6,1.34-1.31,.09-.64-.33-1.34-.97-1.55-.25-.08-.53-.1-.8-.1C22.35,0,13.78,0,5.2,0c-.14,0-.27,0-.41,0-.66,.06-1.2,.55-1.33,1.22-.12,.59,.17,1.27,.73,1.54,.31,.15,.68,.21,1.02,.21,4.27,.01,8.54,0,12.81,0Zm12.94,12.3c-2.32,0-4.64,0-6.97,0-1.36,0-2.71-.02-4.07,0-1.18,.02-1.9,1.16-1.38,2.17,.34,.65,.91,.85,1.61,.84,7.19,0,14.37,0,21.56,0,.14,0,.27,0,.41-.01,.6-.09,1.04-.39,1.27-.97,.4-1.03-.36-2.03-1.55-2.04-3.63,0-7.25,0-10.88,0Zm-13.65,15.31c-2.76,0-5.52,0-8.28,0-.83,0-1.43,.57-1.52,1.35-.07,.69,.4,1.39,1.1,1.57,.22,.06,.47,.06,.7,.06,5.3,0,10.6,0,15.91,0,.14,0,.27,0,.41,0,.83-.05,1.44-.72,1.41-1.56-.03-.84-.67-1.42-1.59-1.42-2.71,0-5.42,0-8.13,0Zm-7.17-15.31c-1.71,0-3.42,0-5.13,0-.92,0-1.58,.66-1.58,1.5,0,.83,.65,1.5,1.53,1.5,3.42,.02,6.84,.01,10.26,0,.6,0,1.08-.28,1.36-.83,.53-1.02-.2-2.17-1.41-2.18-1.68-.02-3.35,0-5.03,0Zm23.85,18.3c1.25,0,2.51,0,3.76,0,1,0,1.68-.64,1.67-1.52-.02-.87-.69-1.47-1.67-1.47-2.51,0-5.01,0-7.52,0-.97,0-1.64,.62-1.64,1.49,0,.87,.68,1.49,1.64,1.49,1.25,0,2.51,0,3.76,0ZM38.99,2.99c.95,0,1.9,0,2.85,0,1.01,0,1.69-.62,1.68-1.51,0-.87-.68-1.47-1.65-1.48-1.88,0-3.76,0-5.64,0-.98,0-1.64,.61-1.65,1.48,0,.87,.66,1.49,1.63,1.5,.93,0,1.86,0,2.8,0Z"/>
      <path class="cls-1" d="M23.47,7.64c7.2,0,14.4,0,21.6,0,.28,0,.58,.01,.85,.1,.64,.2,1.07,.83,1.03,1.47-.04,.7-.56,1.28-1.26,1.4-.2,.03-.4,.04-.61,.04-14.4,0-28.8,0-43.21,0-.3,0-.62-.02-.9-.11-.64-.21-1.06-.92-.97-1.56,.1-.7,.65-1.24,1.35-1.32,.18-.02,.37-.01,.56-.01,7.18,0,14.37,0,21.55,0Z"/>
      <path class="cls-1" d="M23.48,25.95c-7.2,0-14.4,0-21.6,0-.28,0-.58-.01-.85-.1-.64-.2-1.06-.84-1.02-1.48,.04-.7,.56-1.28,1.26-1.39,.2-.03,.4-.03,.61-.03,14.4,0,28.8,0,43.21,0,.05,0,.1,0,.15,0,1.03,.01,1.74,.64,1.72,1.53-.02,.88-.71,1.48-1.72,1.48-7.25,0-14.5,0-21.76,0Z"/>
      <path class="cls-1" d="M18.03,2.99c-4.27,0-8.54,0-12.81,0-.34,0-.72-.07-1.02-.21-.57-.27-.85-.95-.73-1.54C3.6,.57,4.14,.07,4.79,.01c.13-.01,.27,0,.41,0,8.58,0,17.15,0,25.73,0,.27,0,.55,.02,.8,.1,.65,.22,1.06,.91,.97,1.55-.1,.72-.64,1.25-1.34,1.31-.2,.02-.41,.01-.61,.01-4.24,0-8.47,0-12.71,0Z"/>
      <path class="cls-1" d="M30.97,15.29c3.63,0,7.25,0,10.88,0,1.19,0,1.95,1.01,1.55,2.04-.22,.57-.67,.88-1.27,.97-.13,.02-.27,.01-.41,.01-7.19,0-14.37,0-21.56,0-.7,0-1.27-.19-1.61-.84-.52-1.01,.2-2.15,1.38-2.17,1.36-.02,2.71,0,4.07,0,2.32,0,4.64,0,6.97,0Z"/>
      <path class="cls-1" d="M17.33,30.6c2.71,0,5.42,0,8.13,0,.92,0,1.56,.59,1.59,1.42,.03,.83-.57,1.5-1.41,1.56-.14,0-.27,0-.41,0-5.3,0-10.6,0-15.91,0-.24,0-.48,0-.7-.06-.7-.18-1.18-.88-1.1-1.57,.08-.78,.69-1.35,1.52-1.35,2.76-.01,5.52,0,8.28,0Z"/>
      <path class="cls-1" d="M10.16,15.29c1.68,0,3.35-.01,5.03,0,1.21,.01,1.94,1.16,1.41,2.18-.28,.55-.76,.82-1.36,.83-3.42,.01-6.84,.01-10.26,0-.89,0-1.53-.68-1.53-1.5,0-.85,.67-1.5,1.58-1.5,1.71-.01,3.42,0,5.13,0Z"/>
      <path class="cls-1" d="M34,33.59c-1.25,0-2.51,0-3.76,0-.96,0-1.64-.63-1.64-1.49,0-.87,.67-1.49,1.64-1.49,2.51,0,5.01,0,7.52,0,.98,0,1.65,.6,1.67,1.47,.02,.88-.67,1.51-1.67,1.52-1.25,0-2.51,0-3.76,0Z"/>
      <path class="cls-1" d="M38.99,2.99c-.93,0-1.86,0-2.8,0-.97,0-1.63-.63-1.63-1.5,0-.87,.67-1.48,1.65-1.48,1.88,0,3.76,0,5.64,0,.98,0,1.65,.61,1.65,1.48,0,.89-.66,1.5-1.68,1.51-.95,0-1.9,0-2.85,0Z"/>
    </g>
  </g>
</svg>