<?xml version="1.0" encoding="UTF-8"?>
<svg id="_Слой_2" data-name="Слой 2" xmlns="http://www.w3.org/2000/svg" viewBox="0 0 57.46 57.46">
  <defs>
    <style>
      .cls-1 {
        fill: #fff;
      }
    </style>
  </defs>
  <g id="_основной" data-name="основной">
    <g>
      <circle class="cls-1" cx="28.78" cy="28.59" r="13.93"/>
      <g>
        <path class="cls-1" d="M14.43,17.21c-.73,0-1.46-.28-2.02-.84l-3.96-3.96c-1.11-1.11-1.11-2.92,0-4.04,1.11-1.11,2.92-1.11,4.04,0l3.96,3.96c1.11,1.11,1.11,2.92,0,4.04-.56,.56-1.29,.84-2.02,.84Z"/>
        <path class="cls-1" d="M8.45,31.54H2.85c-1.58,0-2.85-1.28-2.85-2.85s1.28-2.85,2.85-2.85h5.6c1.58,0,2.85,1.28,2.85,2.85s-1.28,2.85-2.85,2.85Z"/>
        <path class="cls-1" d="M10.4,49.85c-.73,0-1.46-.28-2.02-.84-1.11-1.11-1.11-2.92,0-4.04l3.96-3.96c1.11-1.11,2.92-1.11,4.04,0,1.11,1.11,1.11,2.92,0,4.04l-3.96,3.96c-.56,.56-1.29,.84-2.02,.84Z"/>
        <path class="cls-1" d="M28.68,57.46c-1.58,0-2.85-1.28-2.85-2.85v-5.6c0-1.58,1.28-2.85,2.85-2.85s2.85,1.28,2.85,2.85v5.6c0,1.58-1.28,2.85-2.85,2.85Z"/>
        <path class="cls-1" d="M47,49.92c-.73,0-1.46-.28-2.02-.84l-3.96-3.96c-1.11-1.11-1.11-2.92,0-4.04,1.11-1.11,2.92-1.11,4.04,0l3.96,3.96c1.11,1.11,1.11,2.92,0,4.04-.56,.56-1.29,.84-2.02,.84Z"/>
        <path class="cls-1" d="M54.61,31.63h-5.6c-1.58,0-2.85-1.28-2.85-2.85s1.28-2.85,2.85-2.85h5.6c1.58,0,2.85,1.28,2.85,2.85s-1.28,2.85-2.85,2.85Z"/>
        <path class="cls-1" d="M43.1,17.28c-.73,0-1.46-.28-2.02-.84-1.11-1.11-1.11-2.92,0-4.04l3.96-3.96c1.11-1.11,2.92-1.11,4.04,0,1.11,1.11,1.11,2.92,0,4.04l-3.96,3.96c-.56,.56-1.29,.84-2.02,.84Z"/>
        <path class="cls-1" d="M28.78,11.31c-1.58,0-2.85-1.28-2.85-2.85V2.85c0-1.58,1.28-2.85,2.85-2.85s2.85,1.28,2.85,2.85v5.6c0,1.58-1.28,2.85-2.85,2.85Z"/>
      </g>
    </g>
  </g>
</svg>