<?xml version="1.0" encoding="UTF-8"?>
<svg id="_Слой_2" data-name="Слой 2" xmlns="http://www.w3.org/2000/svg" viewBox="0 0 53.25 47.58">
  <defs>
    <style>
      .cls-1 {
        fill: #fff;
      }
    </style>
  </defs>
  <g id="_основной" data-name="основной">
    <g>
      <path class="cls-1" d="M0,20.94c.09-.4,.15-.81,.26-1.21,1.05-3.73,3.47-6.05,7.22-7,.13-.03,.26-.07,.35-.09,.42-6.12,3.32-10.46,9.27-12.11,5.87-1.62,10.54,.57,13.94,5.42,1.07-.36,2.13-.82,3.23-1.05,4.9-1.02,9.85,2.29,10.85,7.2,.08,.37,.19,.55,.59,.63,4.5,.9,7.69,4.98,7.52,9.57-.16,4.45-3.74,8.29-8.26,8.84-.46,.06-.93,.09-1.4,.09-11.3,0-22.6-.02-33.9,.02-5.13,.02-9.07-3.79-9.6-8.14-.01-.1-.06-.19-.09-.29,0-.62,0-1.25,0-1.87Z"/>
      <path class="cls-1" d="M38.24,23.27c-1.26,4.19-2.52,8.38-3.78,12.58l2.68-.21c-.92,3.18-1.83,6.37-2.75,9.55,2.27-4.17,4.54-8.33,6.81-12.5-1.2-.13-2.39-.26-3.59-.39,.2-3.01,.41-6.01,.61-9.02Z"/>
      <path class="cls-1" d="M15.22,24.76c-.93,3.11-1.87,6.22-2.8,9.33l1.99-.15c-.68,2.36-1.36,4.72-2.04,7.09,1.68-3.09,3.37-6.19,5.05-9.28-.89-.1-1.77-.2-2.66-.29,.15-2.23,.3-4.46,.45-6.69Z"/>
      <path class="cls-1" d="M26.18,18.19c-1.69,5.62-3.38,11.24-5.06,16.87l3.6-.28c-1.23,4.27-2.45,8.54-3.68,12.81,3.04-5.59,6.09-11.18,9.13-16.77-1.6-.18-3.21-.35-4.81-.53,.27-4.03,.55-8.06,.82-12.1Z"/>
    </g>
  </g>
</svg>