<?xml version="1.0" encoding="UTF-8"?>
<svg id="_Слой_2" data-name="Слой 2" xmlns="http://www.w3.org/2000/svg" viewBox="0 0 45.67 52.13">
  <defs>
    <style>
      .cls-1 {
        fill: #fff;
      }
    </style>
  </defs>
  <g id="_основной" data-name="основной">
    <path class="cls-1" d="M23.24,.06c1.19,.4,1.67,1.24,1.64,2.49-.05,1.83-.01,3.66-.01,5.62,.19-.17,.3-.27,.41-.38,.6-.6,1.19-1.2,1.8-1.8,.88-.86,2.15-.88,2.95-.06,.81,.83,.78,2.07-.1,2.95-1.59,1.6-3.19,3.19-4.77,4.79-.15,.15-.28,.4-.28,.6-.02,2.66-.01,5.32-.01,7.98,0,.08,.01,.16,.02,.29,.19-.1,.33-.17,.47-.26,2.19-1.26,4.37-2.53,6.56-3.78,.31-.18,.46-.39,.55-.73,.57-2.18,1.15-4.35,1.75-6.52,.32-1.16,1.41-1.79,2.51-1.48,1.1,.31,1.7,1.37,1.42,2.5-.22,.89-.47,1.77-.7,2.65-.03,.11-.04,.22-.08,.42,1-.58,1.94-1.11,2.87-1.65,.75-.43,1.49-.87,2.25-1.29,1.11-.63,2.33-.35,2.91,.67,.59,1.02,.23,2.2-.89,2.86-1.52,.89-3.05,1.76-4.57,2.64-.15,.09-.3,.18-.54,.33,1.08,.29,2.06,.54,3.03,.82,.99,.29,1.61,1.11,1.56,2.06-.05,.97-.74,1.78-1.72,1.91-.35,.05-.74-.02-1.1-.11-2.13-.55-4.25-1.14-6.38-1.69-.21-.05-.49-.05-.66,.05-2.33,1.32-4.64,2.66-6.96,4-.05,.03-.1,.08-.19,.15,.17,.11,.3,.2,.44,.28,2.18,1.26,4.37,2.52,6.55,3.79,.31,.18,.57,.2,.91,.11,2.12-.59,4.25-1.15,6.37-1.72,1.27-.34,2.37,.25,2.67,1.42,.27,1.06-.29,2.1-1.38,2.43-1,.31-2.02,.56-3.13,.86,.21,.13,.36,.23,.51,.32,1.57,.91,3.15,1.8,4.7,2.72,1.27,.76,1.41,2.43,.3,3.35-.67,.55-1.54,.61-2.37,.14-1.56-.89-3.11-1.79-4.66-2.69-.14-.08-.29-.16-.54-.29,.21,.8,.39,1.51,.58,2.22,.08,.31,.18,.62,.25,.93,.24,1.11-.39,2.14-1.48,2.43-1.06,.28-2.14-.33-2.46-1.42-.39-1.38-.75-2.78-1.12-4.17-.23-.87-.46-1.73-.71-2.6-.05-.16-.16-.35-.3-.43-2.36-1.37-4.72-2.73-7.08-4.09-.03-.01-.06,0-.15-.02v.44c0,2.56,0,5.12,.01,7.68,0,.25,.13,.56,.31,.74,1.59,1.62,3.21,3.21,4.8,4.83,1.11,1.13,.67,2.95-.81,3.39-.78,.24-1.48,.05-2.06-.53-.72-.71-1.42-1.44-2.22-2.25-.02,.26-.04,.41-.04,.55,0,1.8,0,3.59,0,5.39,0,1.28-.85,2.19-2.03,2.19-1.18,0-2.03-.91-2.03-2.2,0-1.93,0-3.86,0-5.93-.44,.44-.79,.78-1.14,1.13-.36,.36-.71,.72-1.08,1.08-.88,.85-2.15,.87-2.95,.04-.8-.82-.77-2.06,.09-2.92,1.59-1.6,3.19-3.19,4.77-4.79,.14-.14,.3-.36,.3-.54,.02-2.76,.01-5.52,.01-8.36-.19,.09-.33,.16-.47,.24-2.2,1.27-4.4,2.53-6.59,3.82-.23,.14-.44,.42-.52,.67-.61,2.18-1.18,4.38-1.78,6.57-.32,1.15-1.43,1.77-2.53,1.44-1.1-.33-1.68-1.37-1.39-2.52,.25-.98,.52-1.96,.81-3.06-.26,.14-.41,.23-.56,.31-1.58,.91-3.16,1.84-4.76,2.73-.86,.48-1.82,.31-2.47-.38-.61-.64-.76-1.65-.27-2.39,.21-.33,.53-.62,.87-.82,1.51-.9,3.04-1.77,4.57-2.65,.16-.09,.31-.19,.56-.34-1.09-.29-2.08-.54-3.06-.82-.98-.28-1.59-1.13-1.54-2.07,.06-.96,.77-1.77,1.75-1.9,.34-.04,.71,.02,1.05,.11,2.15,.56,4.28,1.14,6.43,1.7,.18,.05,.43,.07,.57,0,2.4-1.36,4.79-2.74,7.25-4.16-.16-.11-.27-.2-.39-.27-2.21-1.28-4.42-2.56-6.65-3.82-.23-.13-.58-.17-.84-.1-2.15,.55-4.28,1.14-6.43,1.7-1.18,.31-2.24-.2-2.61-1.24-.41-1.16,.24-2.33,1.48-2.68,.93-.26,1.86-.5,2.8-.75,.03,0,.05-.03,.15-.09-.18-.11-.33-.21-.48-.29-1.57-.91-3.14-1.8-4.71-2.72-.88-.52-1.25-1.48-.94-2.4,.29-.89,1.14-1.49,2.07-1.39,.36,.04,.72,.18,1.04,.36,1.52,.85,3.03,1.73,4.54,2.6,.16,.09,.32,.18,.59,.33-.26-.97-.52-1.84-.72-2.72-.1-.47-.17-.98-.08-1.44,.17-.88,1-1.47,1.89-1.48,.95-.02,1.74,.55,2,1.49,.43,1.52,.82,3.04,1.23,4.56,.19,.72,.37,1.44,.59,2.15,.06,.19,.2,.4,.36,.5,2.29,1.34,4.6,2.67,6.9,4,.07,.04,.14,.07,.28,.14v-.5c0-2.56,0-5.12-.01-7.68,0-.25-.14-.55-.32-.73-1.59-1.62-3.21-3.21-4.8-4.83-1.11-1.13-.65-2.95,.83-3.39,.76-.22,1.45-.05,2.02,.5,.62,.6,1.22,1.22,1.84,1.83,.12,.12,.24,.22,.42,.39,.01-.24,.03-.4,.03-.56,0-1.68,.04-3.36-.01-5.03-.04-1.25,.45-2.08,1.64-2.49,.1-.03,.23-.06,.4-.06,.17,0,.32,.03,.42,.06Z"/>
  </g>
</svg>