<?xml version="1.0" encoding="UTF-8"?>
<svg id="_Слой_2" data-name="Слой 2" xmlns="http://www.w3.org/2000/svg" viewBox="0 0 53.25 31.25">
  <defs>
    <style>
      .cls-1 {
        fill: #fff;
      }
    </style>
  </defs>
  <g id="_основной" data-name="основной">
    <path class="cls-1" d="M0,20.94c.09-.4,.15-.81,.26-1.21,1.05-3.73,3.47-6.05,7.22-7,.13-.03,.26-.07,.35-.09,.42-6.12,3.32-10.46,9.27-12.11,5.87-1.62,10.54,.57,13.94,5.42,1.07-.36,2.13-.82,3.23-1.05,4.9-1.02,9.85,2.29,10.85,7.2,.08,.37,.19,.55,.59,.63,4.5,.9,7.69,4.98,7.52,9.57-.16,4.45-3.74,8.29-8.26,8.84-.46,.06-.93,.09-1.4,.09-11.3,0-22.6-.02-33.9,.02-5.13,.02-9.07-3.79-9.6-8.14-.01-.1-.06-.19-.09-.29,0-.62,0-1.25,0-1.87Z"/>
  </g>
</svg>