<?xml version="1.0" encoding="UTF-8"?>
<svg id="_Слой_2" data-name="Слой 2" xmlns="http://www.w3.org/2000/svg" viewBox="0 0 101.08 101.08">
  <defs>
    <style>
      .cls-1, .cls-2 {
        fill: #df9558;
      }

      .cls-3 {
        fill: none;
        stroke: #df9558;
        stroke-miterlimit: 10;
        stroke-width: 4.4px;
      }

      .cls-2 {
        opacity: .46;
      }
    </style>
  </defs>
  <g id="_Слой_34" data-name="Слой 34">
    <circle class="cls-2" cx="50.54" cy="50.54" r="50.54"/>
    <path class="cls-3" d="M59.79,21.7h-18.51c-1.72,0-3.37,.68-4.59,1.9l-13.09,13.09c-1.22,1.22-1.9,2.87-1.9,4.59v18.51c0,1.72,.68,3.37,1.9,4.59l13.09,13.09c1.22,1.22,2.87,1.9,4.59,1.9h18.51c1.72,0,3.37-.68,4.59-1.9l13.09-13.09c1.22-1.22,1.9-2.87,1.9-4.59v-18.51c0-1.72-.68-3.37-1.9-4.59l-13.09-13.09c-1.22-1.22-2.87-1.9-4.59-1.9Z"/>
    <path class="cls-1" d="M47.27,66.1c0-2,1.39-3.44,3.27-3.44,2,0,3.27,1.44,3.27,3.44s-1.28,3.44-3.27,3.44-3.27-1.5-3.27-3.44Zm1.39-7.93l-.78-26.63h5.33l-.78,26.63h-3.77Z"/>
  </g>
</svg>