<?xml version="1.0" encoding="UTF-8"?>
<svg id="_Слой_2" data-name="Слой 2" xmlns="http://www.w3.org/2000/svg" viewBox="0 0 82.25 72.66">
  <defs>
    <style>
      .cls-1 {
        stroke-width: 1.42px;
      }

      .cls-1, .cls-2, .cls-3 {
        fill: none;
        stroke: red;
        stroke-miterlimit: 10;
      }

      .cls-2 {
        stroke-linecap: round;
        stroke-width: 2px;
      }

      .cls-3 {
        stroke-width: .37px;
      }
    </style>
  </defs>
  <g id="_Слой_34" data-name="Слой 34">
    <path class="cls-2" d="M37.37,3.17L1.59,65.14c-1.67,2.9,.42,6.52,3.76,6.52H76.9c3.34,0,5.43-3.62,3.76-6.52L44.89,3.17c-1.67-2.9-5.85-2.9-7.52,0Z"/>
    <path class="cls-1" d="M43.32,52.52c-.6,.6-1.33,.9-2.19,.9s-1.59-.3-2.19-.9c-.6-.6-.9-1.33-.9-2.19s.3-1.59,.9-2.19,1.33-.9,2.19-.9,1.59,.3,2.19,.9c.6,.6,.9,1.33,.9,2.19s-.3,1.59-.9,2.19Zm-2.49-10.34c-.62,0-1.13-.49-1.16-1.1l-.79-16.31V14.69c0-.64,.52-1.16,1.16-1.16h2.18c.64,0,1.16,.52,1.16,1.16v10.08l-.79,16.31c-.03,.62-.54,1.1-1.16,1.1h-.6Z"/>
    <g>
      <path class="cls-3" d="M20.49,59.41h.96v7.26h-.96v-1.42c-.67,1.06-1.65,1.6-2.93,1.6-1.04,0-1.92-.37-2.65-1.1-.73-.74-1.1-1.64-1.1-2.7s.37-1.96,1.1-2.7c.73-.74,1.61-1.1,2.65-1.1,1.29,0,2.26,.53,2.93,1.6v-1.42Zm-4.89,5.67c.55,.56,1.23,.83,2.03,.83s1.48-.28,2.03-.83c.55-.56,.83-1.24,.83-2.04s-.28-1.48-.83-2.04c-.55-.56-1.23-.83-2.03-.83s-1.48,.28-2.03,.83c-.55,.56-.83,1.24-.83,2.04s.28,1.48,.83,2.04Z"/>
      <path class="cls-3" d="M26.86,66.84c-1.09,0-2-.37-2.73-1.1s-1.09-1.63-1.09-2.71,.36-1.98,1.09-2.71c.73-.73,1.64-1.1,2.73-1.1,.72,0,1.36,.17,1.93,.52s.99,.81,1.25,1.39l-.78,.45c-.19-.44-.51-.78-.94-1.04-.43-.26-.92-.38-1.46-.38-.8,0-1.48,.28-2.03,.83-.55,.56-.83,1.24-.83,2.04s.28,1.48,.83,2.04c.55,.56,1.23,.83,2.03,.83,.54,0,1.03-.13,1.45-.38,.43-.26,.76-.6,1-1.04l.8,.46c-.3,.58-.74,1.04-1.32,1.38-.58,.34-1.22,.51-1.93,.51Z"/>
      <path class="cls-3" d="M34.89,59.24c.88,0,1.58,.27,2.08,.81s.76,1.26,.76,2.17v4.46h-.96v-4.46c0-.65-.17-1.15-.52-1.51-.34-.36-.83-.54-1.46-.54-.7,0-1.26,.22-1.7,.66-.44,.44-.65,1.12-.65,2.04v3.8h-.96v-10.16h.96v4.04c.54-.87,1.35-1.31,2.44-1.31Z"/>
      <path class="cls-3" d="M43.44,60.34h-2.09v4.4c0,.4,.08,.68,.23,.85,.15,.17,.39,.26,.7,.26,.31,0,.7,0,1.16-.02v.84c-1.02,.15-1.78,.08-2.29-.22-.51-.3-.76-.87-.76-1.71v-4.4h-1.52v-.93h1.52v-1.74l.96-.29v2.03h2.09v.93Z"/>
      <path class="cls-3" d="M50.15,59.41h.96v7.26h-.96v-1.13c-.54,.87-1.36,1.31-2.44,1.31-.88,0-1.57-.27-2.08-.81-.51-.54-.76-1.26-.76-2.17v-4.46h.96v4.46c0,.65,.17,1.15,.52,1.51s.83,.54,1.46,.54c.7,0,1.26-.22,1.7-.66s.65-1.12,.65-2.04v-3.8Z"/>
      <path class="cls-3" d="M56.54,59.24c.88,0,1.58,.27,2.08,.81s.76,1.26,.76,2.17v4.46h-.96v-4.46c0-.65-.17-1.15-.52-1.51-.34-.36-.83-.54-1.46-.54-.7,0-1.26,.22-1.7,.66-.44,.44-.65,1.12-.65,2.04v3.8h-.96v-7.26h.96v1.13c.54-.87,1.35-1.31,2.44-1.31Z"/>
      <path class="cls-3" d="M67.48,59.41h.96v6.97c0,1.04-.36,1.87-1.07,2.47-.72,.6-1.57,.9-2.57,.9-1.7,0-2.85-.59-3.44-1.77l.84-.48c.44,.88,1.3,1.32,2.6,1.32,.83,0,1.49-.22,1.97-.66,.48-.44,.72-1.03,.72-1.78v-1.13c-.67,1.06-1.65,1.6-2.93,1.6-1.04,0-1.92-.37-2.65-1.1-.73-.74-1.1-1.64-1.1-2.7s.37-1.96,1.1-2.7c.73-.74,1.61-1.1,2.65-1.1,1.29,0,2.26,.53,2.93,1.6v-1.42Zm-4.89,5.67c.55,.56,1.23,.83,2.03,.83s1.48-.28,2.03-.83c.55-.56,.83-1.24,.83-2.04s-.28-1.48-.83-2.04c-.55-.56-1.23-.83-2.03-.83s-1.48,.28-2.03,.83c-.55,.56-.83,1.24-.83,2.04s.28,1.48,.83,2.04Z"/>
    </g>
  </g>
</svg>