<?xml version="1.0" encoding="UTF-8"?>
<svg id="_Слой_2" data-name="Слой 2" xmlns="http://www.w3.org/2000/svg" viewBox="0 0 57.56 85.14">
  <defs>
    <style>
      .cls-1 {
        fill: #29abe2;
      }

      .cls-2 {
        fill: #fbb03b;
      }
    </style>
  </defs>
  <g id="_основной" data-name="основной">
    <g>
      <path class="cls-1" d="M30.46,84.91c-1.19,0-2.2-.2-2.88-.39-1.06-.29-4.65-1.54-6.58-5.32-1.17-2.31-1.2-4.54-1.02-6.01,.04-.31,.08-.54,.09-.61,.26-1.41,1.08-3.13,2.43-5.13h0c.19-.28,.27-.38,.35-.49,.08-.1,.16-.21,.36-.51,.42-.61,1.28-1.88,1.95-3.21,.64-1.29,1.13-2.71,1.45-4.22,0-.02,0-.03,.01-.05,0-.02,.48-1.6,.73-3.08,.02-.1,.03-.15,.03-.23,.02-.16,.03-.4,.05-.71v-.12c.01-.1,.03-.36,.28-.52,.15-.09,.32-.11,.48-.07,.67,.18,2.59,3.17,3.22,4.35,1.34,2.49,1.77,4.67,2.15,6.6,.48,2.42,.76,5.57,.76,5.6l.02,.27c.47-.54,1.15-1.49,1.71-2.66,.35-.73,1-2.09,1.2-4,.04-.35,.05-.65,.06-.89,.03-.55,.05-1.07,.58-1.17,.62-.12,.96,.54,1.44,1.96,.33,.98,.67,2.26,.92,3.41,.32,1.49,.65,3.03,.61,5.11-.03,1.69-.06,3.6-1.06,5.77-1.14,2.5-2.85,4.29-5.07,5.34-1.53,.72-3.02,.95-4.3,.95Zm-2.74-25.62c-.34,1.6-.86,3.1-1.54,4.47-.7,1.4-1.59,2.71-2.02,3.34-.22,.32-.3,.43-.38,.54-.07,.1-.14,.19-.32,.45h0c-1.26,1.87-2.02,3.45-2.26,4.7-.01,.06-.05,.27-.08,.54-.16,1.31-.14,3.3,.91,5.35,1.71,3.37,4.92,4.48,5.86,4.74,1.26,.35,3.76,.75,6.39-.5,1.97-.93,3.49-2.54,4.52-4.79,.9-1.96,.93-3.74,.95-5.32,.03-1.95-.27-3.36-.59-4.86-.25-1.16-.54-2.24-.81-3.06-.26,1.91-.93,3.3-1.26,3.99-.84,1.77-2.18,3.51-2.87,3.73-.19,.06-.38,.05-.54-.04-.3-.16-.35-.46-.41-.87-.01-.09-.02-.16-.03-.31l-.04-.51s-.28-3.13-.74-5.48c-.36-1.84-.78-3.94-2.04-6.28-.6-1.12-1.38-2.27-1.95-3.02-.25,1.46-.69,2.95-.75,3.16Zm-4.74,8.49h0Z"/>
      <circle class="cls-2" cx="11.59" cy="31.93" r=".84"/>
      <path class="cls-2" d="M28.96,85.14c-3.27,0-6.03-.55-7.9-1.07-2.9-.8-12.77-4.22-18.04-14.6C.23,63.97-.65,57.7,.48,51.34c1.17-6.62,4.34-11.41,6.79-14.25,.2-.24,.56-.26,.8-.06,.24,.2,.26,.56,.06,.8-2.36,2.74-5.41,7.34-6.54,13.71-1.09,6.12-.24,12.14,2.44,17.42,5.06,9.96,14.54,13.25,17.33,14.02,3.72,1.03,11.11,2.2,18.89-1.48,5.83-2.75,10.32-7.51,13.35-14.12,2.64-5.76,2.73-10.96,2.81-15.55,.1-5.66-.82-9.92-1.7-14.05-1.24-5.81-3.04-11.4-4.01-13.12-.02,.24-.03,.52-.04,.8-.03,.71-.07,1.6-.19,2.67-.61,5.81-2.63,10.05-3.61,12.09-2.42,5.08-6.04,9.59-7.54,10.07-.33,.11-.57,.04-.71-.04-.4-.22-.47-.66-.62-1.72-.04-.24-.05-.41-.08-.82-.02-.2-.04-.45-.07-.8l-.06-.63c0-.09-.79-8.94-2.12-15.7-1.05-5.32-2.24-11.34-5.9-18.15-2.47-4.59-5.79-9.11-7.24-10.73-.04,.66-.07,1.2-.11,1.6-.03,.26-.06,.44-.11,.77-.74,4.36-2.14,8.98-2.15,9.02-1.47,4.83-3.14,9.42-4.28,12.42-.11,.29-.44,.44-.73,.33-.29-.11-.44-.44-.33-.73,1.13-2.98,2.79-7.55,4.25-12.35,.01-.05,1.39-4.6,2.12-8.88,.06-.33,.08-.48,.11-.71,.05-.48,.09-1.18,.13-2.07l.02-.36c.01-.22,.03-.5,.3-.66,.15-.09,.33-.11,.51-.06,1.1,.3,5.88,6.95,8.52,11.86,3.74,6.95,4.95,13.07,6.01,18.47,1.35,6.82,2.13,15.73,2.14,15.82l.06,.63c.03,.35,.05,.61,.07,.81,.03,.39,.04,.54,.07,.75,.04,.26,.08,.52,.11,.71,1.12-.73,4.25-4.39,6.61-9.35,.95-1.98,2.91-6.11,3.5-11.72,.11-1.04,.15-1.91,.18-2.6,.07-1.47,.1-2.2,.81-2.34,.6-.12,1.32,.17,2.9,4.89,.93,2.77,1.89,6.35,2.58,9.6,.9,4.19,1.82,8.51,1.72,14.3-.08,4.7-.17,10.02-2.91,16-3.15,6.86-7.82,11.8-13.9,14.67-4.19,1.98-8.28,2.61-11.78,2.61Z"/>
    </g>
  </g>
</svg>