<?xml version="1.0" encoding="UTF-8"?>
<svg id="_Слой_2" data-name="Слой 2" xmlns="http://www.w3.org/2000/svg" viewBox="0 0 54.52 84.34">
  <defs>
    <style>
      .cls-1 {
        fill: #ed1c24;
      }
    </style>
  </defs>
  <g id="_дом" data-name="дом">
    <g>
      <path class="cls-1" d="M13.26,82.76c-.08,0-.16-.02-.23-.05C5.31,79.34,.2,71.72,0,63.31c0-.16,0-.33,0-.5,0-3.18,.67-6.24,2-9.1l.02-.04L20.04,21.98c.35-.62,.98-.98,1.68-.98s1.33,.37,1.68,.98l17.91,31.49c1.4,2.93,2.1,6.07,2.1,9.34,0,.17,0,.34,0,.51-.19,8.32-5.23,15.91-12.84,19.31-.3,.13-.64,0-.78-.3-.13-.3,0-.64,.3-.78,7.2-3.22,11.97-10.39,12.14-18.27,0-.16,0-.32,0-.48,0-3.09-.67-6.05-1.98-8.81L22.38,22.56c-.14-.25-.38-.39-.66-.39s-.52,.14-.66,.39L3.05,54.22c-1.25,2.7-1.88,5.59-1.88,8.59,0,.16,0,.32,0,.47,.18,7.96,5.02,15.16,12.32,18.35,.3,.13,.43,.48,.3,.77-.1,.22-.31,.35-.54,.35Z"/>
      <path class="cls-1" d="M22.29,75.41c-.12,0-.2,0-.26,0-.32-.01-.58-.28-.56-.61,.01-.32,.29-.57,.61-.56,.24,0,5.85,.17,9.14-4.44,2.24-3.14,2.59-7.3,.91-10.84-.14-.29-.01-.64,.28-.78,.29-.14,.64-.01,.78,.28,1.87,3.93,1.48,8.53-1.02,12.02-3.3,4.62-8.55,4.93-9.88,4.93Z"/>
      <path class="cls-1" d="M42.58,34.7c-3.14,0-6.11-1.21-8.35-3.41-2.24-2.19-3.52-5.13-3.59-8.26,0-.09,0-.18,0-.28,0-1.75,.37-3.44,1.1-5.01l.02-.04L41.44,.67c.24-.42,.66-.67,1.14-.67s.9,.25,1.14,.67l9.64,16.96c.77,1.61,1.16,3.34,1.16,5.14,0,.09,0,.19,0,.28-.07,3.13-1.35,6.06-3.59,8.26-2.25,2.2-5.21,3.41-8.35,3.41Zm-9.79-16.44c-.65,1.41-.98,2.92-.98,4.5,0,.08,0,.17,0,.25,.13,5.81,4.96,10.53,10.77,10.53s10.64-4.72,10.77-10.52c0-.09,0-.17,0-.25,0-1.62-.35-3.17-1.03-4.61L42.7,1.25c-.03-.06-.08-.07-.12-.07s-.09,.01-.12,.07l-9.68,17.02Z"/>
      <circle class="cls-1" cx="21.7" cy="83.47" r=".86"/>
    </g>
  </g>
</svg>