<?xml version="1.0" encoding="UTF-8"?>
<svg id="_Слой_2" data-name="Слой 2" xmlns="http://www.w3.org/2000/svg" viewBox="0 0 74.18 84.18">
  <defs>
    <style>
      .cls-1 {
        fill: #78c158;
      }
    </style>
  </defs>
  <g id="_основной" data-name="основной">
    <g>
      <path class="cls-1" d="M17.88,84.18c-.06,0-.13-.01-.19-.03-.24-.09-.39-.33-.36-.59l2.55-21.46c.04-.31,.32-.52,.62-.49,.31,.04,.52,.31,.49,.62l-2.27,19.09,30.74-47.2H28.79c-.16,0-.32-.07-.42-.19-.11-.12-.15-.29-.13-.45L33.08,2.66,1.68,44.06H22.52c.16,0,.31,.07,.42,.19s.16,.28,.14,.44l-.41,3.45c-.04,.31-.31,.52-.62,.49-.31-.04-.52-.31-.49-.62l.34-2.83H.56c-.21,0-.4-.12-.5-.31-.09-.19-.07-.42,.06-.58L33.53,.22c.15-.2,.43-.28,.66-.18,.23,.1,.37,.35,.33,.6l-5.08,32.37h21.04c.2,0,.39,.11,.49,.29,.1,.18,.09,.4-.02,.57L18.35,83.93c-.11,.16-.28,.25-.47,.25Z"/>
      <path class="cls-1" d="M57.94,47.3c-.06,0-.13-.01-.19-.03-.24-.09-.39-.33-.36-.59l2.16-18.15h-9.94c-.21,0-.4-.12-.5-.31-.09-.19-.07-.42,.06-.58L65.24,6.45c.15-.2,.43-.28,.66-.18,.23,.1,.37,.35,.33,.6l-2.39,15.24h9.78c.2,0,.39,.11,.49,.29,.1,.18,.09,.4-.02,.57l-15.68,24.08c-.11,.16-.28,.25-.47,.25Zm1.23-10.88l.55,.07-.95,7.96,13.82-21.23h-9.41c-.16,0-.32-.07-.42-.19-.11-.12-.15-.29-.13-.45l2.15-13.7-14.06,18.54h9.44c.16,0,.31,.07,.42,.19s.16,.28,.14,.44l-1,8.44-.55-.07Z"/>
      <circle class="cls-1" cx="21.39" cy="55.25" r=".82"/>
    </g>
  </g>
</svg>