<?xml version="1.0" encoding="UTF-8"?>
<svg id="_Слой_2" data-name="Слой 2" xmlns="http://www.w3.org/2000/svg" viewBox="0 0 105.5 85.63">
  <defs>
    <style>
      .cls-1 {
        fill: none;
        stroke: #4bb5f5;
        stroke-linecap: round;
        stroke-miterlimit: 10;
      }

      .cls-2 {
        fill: #29abe2;
      }

      .cls-3 {
        fill: #fbb03b;
      }
    </style>
  </defs>
  <g id="_Слой_34" data-name="Слой 34">
    <g>
      <path class="cls-2" d="M43.97,25.03l-.04-1.29c3.31-.11,6.64-.5,9.88-1.17,3.47-.71,6.89-1.74,10.18-3.07l.48,1.2c-3.36,1.35-6.86,2.41-10.41,3.14-3.31,.68-6.71,1.08-10.1,1.2Z"/>
      <path class="cls-2" d="M59.9,47.49c-2.83-1.57-5.83-2.88-8.9-3.92-3.08-1.04-6.27-1.79-9.49-2.25l.18-1.28c3.29,.47,6.56,1.25,9.72,2.31,3.14,1.06,6.21,2.41,9.11,4.01l-.63,1.13Z"/>
      <path class="cls-3" d="M41.56,61.5c-.75,0-1.5-.06-2.25-.17-5.7-.85-10.56-4.86-13.69-11.29-3.09-6.35-4.12-14.32-2.91-22.45C25.22,10.73,36.76-1.58,48.43,.16c11.67,1.74,19.12,16.88,16.6,33.74-1.21,8.13-4.53,15.45-9.33,20.62-4.23,4.55-9.18,6.97-14.14,6.97ZM23.99,27.78c-1.17,7.87-.18,15.57,2.8,21.69,2.94,6.04,7.45,9.79,12.72,10.58,5.27,.78,10.68-1.49,15.25-6.41,4.63-4.98,7.83-12.06,9-19.93,2.41-16.16-4.55-30.63-15.52-32.27C37.28-.19,26.4,11.62,23.99,27.78h0Z"/>
      <path class="cls-2" d="M40.78,41.43c-.2,0-.4-.02-.6-.04-3.3-.49-5.29-4.84-4.53-9.9h0c.35-2.36,1.26-4.5,2.57-6.03,1.38-1.61,3.03-2.36,4.66-2.12,1.63,.24,2.99,1.45,3.83,3.39,.8,1.84,1.05,4.15,.7,6.51-.35,2.36-1.26,4.5-2.57,6.02-1.21,1.41-2.63,2.17-4.06,2.17Zm-3.85-9.75c-.63,4.2,.95,8.06,3.44,8.43,1.17,.18,2.41-.42,3.48-1.68,1.15-1.35,1.95-3.25,2.27-5.38,.32-2.12,.1-4.18-.6-5.8-.66-1.52-1.67-2.45-2.84-2.63-1.17-.18-2.41,.42-3.48,1.68-1.15,1.34-1.95,3.25-2.27,5.38h0Z"/>
      <path class="cls-3" d="M46.45,60.71l-.45-1.21c4.05-1.51,8.18-2.97,12.27-4.34,4.5-1.51,9.08-2.95,13.63-4.29,1.92-.56,3.89-1.08,5.86-1.52,6.18-1.4,12.55-2.2,18.94-2.38,.29,0,.55-.15,.73-.39,1.26-1.73,3.3-5.3,2.76-9.84-.23-1.88-.87-3.68-1.9-5.35-.17-.27-.41-.47-.7-.59-7.08-2.9-14.06-6.26-20.73-9.98-5.71-3.18-11.33-6.71-16.7-10.47l.74-1.06c5.33,3.74,10.91,7.23,16.58,10.4,6.63,3.7,13.56,7.03,20.59,9.91,.55,.22,1,.61,1.31,1.1,1.13,1.83,1.84,3.8,2.09,5.87,.6,4.98-1.62,8.88-3,10.76-.41,.56-1.05,.9-1.74,.92-6.31,.18-12.6,.96-18.69,2.34-1.94,.44-3.89,.95-5.78,1.5-4.53,1.34-9.1,2.78-13.58,4.28-4.07,1.36-8.19,2.82-12.23,4.33Z"/>
      <path class="cls-3" d="M101.03,48.39c-.31,0-.62-.01-.94-.04-.86-.08-1.72-.25-2.54-.53l.41-1.22c.73,.24,1.48,.4,2.24,.47,.37,.03,.74,.04,1.1,.03,.36-.01,.69-.2,.87-.5,.83-1.39,1.84-3.65,2.01-6.51,.09-1.65-.1-3.3-.58-4.9-.05-.16-.14-.29-.28-.38-.58-.4-1.18-.79-1.78-1.14-.83-.49-1.7-.93-2.58-1.31l.52-1.18c.92,.41,1.83,.87,2.7,1.38,.63,.37,1.26,.77,1.87,1.19,.37,.26,.65,.64,.78,1.07,.52,1.75,.73,3.54,.63,5.35-.18,3.12-1.29,5.58-2.19,7.1-.41,.69-1.13,1.11-1.94,1.14-.11,0-.21,0-.32,0Z"/>
      <path class="cls-3" d="M77.26,55.08c-.1,0-.19,0-.29-.02-1.1-.13-2.13-.47-3.08-1.02-.9-.52-1.68-1.21-2.31-2.04l1.03-.79c.53,.7,1.18,1.27,1.93,1.71,.79,.46,1.66,.75,2.58,.86,.15,.02,.3,0,.46-.03,1.67-.4,3.38-.69,5.07-.85,3.4-.33,6.86-.18,10.27,.45,.64,.12,1.28-.16,1.65-.7,.36-.53,.65-1.09,.87-1.69,.39-1.02,.57-2.09,.54-3.19l1.29-.04c.04,1.26-.17,2.5-.62,3.68-.26,.68-.6,1.34-1.01,1.95-.65,.97-1.81,1.46-2.95,1.25-3.3-.6-6.63-.75-9.92-.43-1.64,.16-3.28,.43-4.89,.82-.21,.05-.42,.08-.62,.08Z"/>
      <path class="cls-3" d="M80.17,85.63c-.56,0-1.14-.1-1.7-.3-.63-.23-1.29-.49-1.95-.78-.35-.15-.69-.31-1.02-.46-2.12-1.01-3.25-3.4-2.68-5.7,1.07-4.3,2.05-8.68,2.92-13.03,.75-3.72,1.43-7.51,2.04-11.25l1.28,.21c-.61,3.76-1.3,7.56-2.05,11.3-.88,4.36-1.87,8.76-2.94,13.08-.42,1.7,.41,3.48,1.98,4.22,.32,.15,.65,.3,.98,.45,.64,.28,1.27,.53,1.88,.75,1.88,.68,3.93-.24,4.67-2.1,2.18-5.46,3.9-11.13,5.11-16.86,.8-3.78,1.4-7.66,1.77-11.51l1.29,.12c-.38,3.9-.98,7.83-1.8,11.66-1.23,5.8-2.97,11.54-5.18,17.07-.78,1.95-2.63,3.14-4.6,3.14Z"/>
      <path class="cls-3" d="M100.5,48.13l-1.04-.77c1.03-1.4,2.76-4.33,2.84-8.26,.04-2.08-.37-4.11-1.22-6.05l1.18-.52c.92,2.08,1.38,4.36,1.33,6.6-.09,4.28-1.97,7.47-3.09,9Z"/>
      <path class="cls-3" d="M77.1,83.75l-1.23-.41c1.83-5.44,3.27-11.05,4.28-16.69,.75-4.18,1.28-8.45,1.58-12.69l1.29,.09c-.3,4.29-.84,8.6-1.59,12.82-1.03,5.7-2.48,11.38-4.33,16.88Z"/>
      <path class="cls-2" d="M.65,63.09c-.28,0-.53-.18-.62-.45-.11-.34,.08-.7,.43-.81l19.69-6.13c.34-.11,.7,.08,.81,.42,.11,.34-.08,.7-.43,.81L.84,63.06c-.06,.02-.13,.03-.19,.03Z"/>
      <path class="cls-2" d="M16.83,42.64s-.05,0-.08,0l-10.43-1.32c-.35-.04-.61-.37-.56-.72s.37-.6,.72-.56l10.43,1.32c.35,.04,.61,.37,.56,.72-.04,.33-.32,.57-.64,.57Z"/>
      <path class="cls-2" d="M19.84,24.03c-.09,0-.19-.02-.28-.06L3.11,15.98c-.32-.16-.46-.54-.3-.86,.16-.32,.54-.45,.86-.3l16.45,7.99c.32,.16,.46,.54,.3,.86-.11,.23-.34,.36-.58,.36Z"/>
      <path class="cls-1" d="M79.05,63.1c-.13,.95-.29,1.92-.46,2.92-.32,1.82-.7,3.55-1.1,5.18"/>
    </g>
  </g>
</svg>