<?xml version="1.0" encoding="UTF-8"?>
<svg id="_Слой_2" data-name="Слой 2" xmlns="http://www.w3.org/2000/svg" viewBox="0 0 142.31 107.4">
  <defs>
    <style>
      .cls-1 {
        fill: #343436;
      }

      .cls-2 {
        fill: none;
        stroke: #343436;
        stroke-linecap: round;
        stroke-linejoin: round;
        stroke-width: 5px;
      }
    </style>
  </defs>
  <g id="_погода" data-name="погода">
    <g>
      <path class="cls-2" d="M126.77,66.21c0,1.28-.52,2.44-1.36,3.28-.84,.84-2,1.36-3.28,1.36h-42.81c-1.12,0-2.14,.45-2.87,1.19-.73,.74-1.19,1.75-1.19,2.87,0,2.24,1.82,4.06,4.06,4.06h1.71c2.56,0,4.64,2.08,4.64,4.64,0,1.28-.52,2.44-1.36,3.28-.84,.84-2,1.36-3.28,1.36h-4.8c-1.02,0-1.94,.41-2.6,1.08-.66,.66-1.08,1.58-1.08,2.6,0,2.03,1.64,3.67,3.67,3.67h27.43c2.56,0,4.64,2.08,4.64,4.64,0,1.28-.52,2.44-1.36,3.28-.84,.84-2,1.36-3.28,1.36H30.16c-2.57,0-4.64-2.08-4.64-4.64,0-1.28,.52-2.44,1.36-3.28,.84-.84,2-1.36,3.28-1.36h18.31c1.02,0,1.93-.41,2.6-1.08s1.08-1.58,1.08-2.6c0-2.03-1.64-3.67-3.67-3.67H21.46c-2.57,0-4.64-2.08-4.64-4.64,0-1.28,.52-2.44,1.36-3.28s2-1.36,3.28-1.36h1.93c1.12,0,2.14-.45,2.87-1.19,.73-.74,1.19-1.75,1.19-2.87,0-2.24-1.82-4.06-4.06-4.06H7.14c-2.57,0-4.64-2.08-4.64-4.64,0-1.28,.52-2.44,1.36-3.28,.84-.84,2-1.36,3.28-1.36h2.48c-.3-2.24-.45-4.53-.45-6.85C9.17,25.88,32.55,2.5,61.39,2.5s52.22,23.38,52.22,52.22c0,2.32-.15,4.61-.45,6.85h8.96c2.57,0,4.64,2.08,4.64,4.64Z"/>
      <path class="cls-1" d="M115.75,81.33c1.14,0,2.08,.93,2.08,2.08s-.93,2.08-2.08,2.08h-17.62c-1.14,0-2.08-.93-2.08-2.08s.93-2.08,2.08-2.08h17.62m0-5h-17.62c-3.91,0-7.08,3.17-7.08,7.08s3.17,7.08,7.08,7.08h17.62c3.91,0,7.08-3.17,7.08-7.08s-3.17-7.08-7.08-7.08h0Z"/>
      <path class="cls-1" d="M135.24,79.67c2.06,0,3.74,1.68,3.74,3.74s-1.68,3.74-3.74,3.74-3.74-1.68-3.74-3.74,1.68-3.74,3.74-3.74m0-3.34c-3.91,0-7.08,3.17-7.08,7.08s3.17,7.08,7.08,7.08,7.08-3.17,7.08-7.08-3.17-7.08-7.08-7.08h0Z"/>
    </g>
  </g>
</svg>