<svg xmlns="http://www.w3.org/2000/svg" viewBox="0 0 106.09 106.43"><defs><style>.cls-1{fill:#343436;}</style></defs><g id="Слой_2" data-name="Слой 2"><g id="основной"><path class="cls-1" d="M22.71,33.55A10.5,10.5,0,1,1,33.2,23.06,10.51,10.51,0,0,1,22.71,33.55Zm0-15.74A5.25,5.25,0,1,0,28,23.06,5.26,5.26,0,0,0,22.71,17.81Z"/><path class="cls-1" d="M22.7,73.27a6,6,0,1,1,6-6A6,6,0,0,1,22.7,73.27Zm0-7.71a1.76,1.76,0,1,0,1.76,1.76A1.76,1.76,0,0,0,22.7,65.56Z"/><path class="cls-1" d="M22.71,64.36h0a2.63,2.63,0,0,1-2.25-1.28L2.81,33.62a1.18,1.18,0,0,1-.11-.19,22.18,22.18,0,0,1-2-5,22.7,22.7,0,1,1,44,0,23,23,0,0,1-2,5.11l-.79,1.32L25,63.08A2.63,2.63,0,0,1,22.71,64.36ZM7.35,31l1,1.56L22.71,56.62,38.07,31a16.87,16.87,0,0,0,1.53-3.87,17.46,17.46,0,1,0-33.79,0,16.84,16.84,0,0,0,1.5,3.83Z"/><path class="cls-1" d="M83.83,67.59A10.33,10.33,0,1,1,94.15,57.26,10.34,10.34,0,0,1,83.83,67.59Zm0-15.4a5.08,5.08,0,1,0,5.07,5.07A5.08,5.08,0,0,0,83.83,52.19Z"/><path class="cls-1" d="M83.83,106.43a5.87,5.87,0,1,1,5.87-5.87A5.87,5.87,0,0,1,83.83,106.43Zm0-7.53a1.67,1.67,0,1,0,1.67,1.66A1.66,1.66,0,0,0,83.83,98.9Z"/><path class="cls-1" d="M83.83,97.73h0a2.63,2.63,0,0,1-2.25-1.28L64.31,67.63l-.1-.19a21.52,21.52,0,0,1-1.94-4.93,22.26,22.26,0,1,1,43.11,0,21.8,21.8,0,0,1-2,5l-.77,1.3L86.08,96.45A2.63,2.63,0,0,1,83.83,97.73ZM68.86,65l.93,1.53L83.83,90l15-25A17,17,0,1,0,67.35,61.2a16.64,16.64,0,0,0,1.47,3.73Z"/><path class="cls-1" d="M50,98.46H21a6.34,6.34,0,0,1-6.36-5.38,6.2,6.2,0,0,1,6.15-7H44.06A10.43,10.43,0,0,0,54.44,75a10.63,10.63,0,0,0-10.73-9.74H27.19A2.18,2.18,0,0,0,25,67a2.1,2.1,0,0,0,2.07,2.46h17a6.22,6.22,0,0,1,6.2,6.39,6.38,6.38,0,0,1-6.45,6H21.18a10.64,10.64,0,0,0-10.74,9.69,10.4,10.4,0,0,0,10.38,11.11H50a2.1,2.1,0,0,0,2.1-2.1h0A2.1,2.1,0,0,0,50,98.46Z"/><path class="cls-1" d="M79.41,98.46H66.9a2.07,2.07,0,0,0-2.07,2.1v0a2.06,2.06,0,0,0,2.07,2H79.52a2.09,2.09,0,0,0,2.07-2.45A2.19,2.19,0,0,0,79.41,98.46Z"/><circle class="cls-1" cx="58.38" cy="100.56" r="2.1"/></g></g></svg>