<?xml version="1.0" encoding="UTF-8"?>
<svg id="_Слой_2" data-name="Слой 2" xmlns="http://www.w3.org/2000/svg" viewBox="0 0 62.03 77.62">
  <defs>
    <style>
      .cls-1 {
        fill: #343436;
      }
    </style>
  </defs>
  <g id="_настройки_акк" data-name="настройки акк">
    <g>
      <path class="cls-1" d="M31.02,77.62h0c-.9,0-1.74-.39-2.32-1.08L6.43,49.93c-1.71-2.22-3.12-4.67-4.17-7.27-1.5-3.7-2.26-7.62-2.26-11.65C0,22.64,3.29,14.79,9.25,8.91,15.22,3.04,23.13-.13,31.5,0c8.08,.12,15.69,3.36,21.44,9.12,5.75,5.76,8.97,13.38,9.08,21.46h0c.06,4.18-.7,8.24-2.26,12.08-1.06,2.62-2.48,5.09-4.22,7.34l-.03,.04-22.18,26.5c-.58,.69-1.42,1.08-2.32,1.08ZM9.92,50.18h0l.04,.05,20.67,24.7c.13,.16,.3,.18,.39,.18h0c.09,0,.26-.02,.39-.18l22.16-26.48c1.6-2.06,2.9-4.32,3.87-6.72,1.43-3.52,2.13-7.26,2.08-11.1h0c-.21-15.26-12.79-27.87-28.05-28.1-7.7-.11-14.97,2.79-20.45,8.19C5.53,16.1,2.51,23.32,2.51,31.01c0,3.7,.7,7.3,2.08,10.7,.96,2.38,2.25,4.62,3.82,6.66l1.51,1.8Z"/>
      <path class="cls-1" d="M8.02,51.87c-.57-.63-1.12-1.28-1.63-1.94l1.96-1.57,1.56,1.86-1.89,1.65Z"/>
      <path class="cls-1" d="M54.01,51.77l-1.89-1.65,1.42-1.7,1.96,1.57c-.46,.6-.96,1.19-1.48,1.77Z"/>
      <path class="cls-1" d="M31.01,51.35c-11.1,0-20.13-9.03-20.13-20.13,0-2.68,.52-5.27,1.54-7.72,.27-.64,1-.94,1.64-.68,.64,.27,.94,1,.68,1.64-.89,2.14-1.34,4.42-1.34,6.76,0,9.71,7.9,17.62,17.62,17.62s17.62-7.9,17.62-17.62-7.9-17.62-17.62-17.62c-2.28,0-4.49,.43-6.58,1.27-.64,.26-1.37-.05-1.63-.69s.05-1.37,.69-1.63c2.39-.96,4.92-1.45,7.52-1.45,11.1,0,20.13,9.03,20.13,20.13s-9.03,20.13-20.13,20.13Z"/>
      <circle class="cls-1" cx="17.04" cy="18.69" r="1.82"/>
      <path class="cls-1" d="M37.45,42.17l-1.28-3.52c-.15-.4-.53-.67-.96-.67h-8.4c-.43,0-.81,.27-.96,.67l-1.28,3.52c-.15,.43-.56,.71-1.01,.71h-.78c-.75,0-1.27-.75-1.01-1.46l7.34-19.68c.16-.42,.56-.7,1.01-.7h1.78c.45,0,.85,.28,1.01,.7l7.34,19.68c.26,.7-.26,1.46-1.01,1.46h-.78c-.45,0-.86-.28-1.01-.71Zm-9.76-6.9h6.65c.29,0,.49-.29,.39-.55l-3.73-10.21-3.7,10.21c-.1,.27,.1,.55,.39,.55Z"/>
    </g>
  </g>
</svg>