<?xml version="1.0" encoding="UTF-8"?>
<svg id="_Шар_2" data-name="Шар 2" xmlns="http://www.w3.org/2000/svg" viewBox="0 0 47.23 53.82">
  <defs>
    <style>
      .cls-1 {
        fill: red;
      }
    </style>
  </defs>
  <g id="_адреса" data-name="адреса">
    <g>
      <path class="cls-1" d="M36.82,53.82H10.88c-2.86,0-5.23-2.24-5.38-5.1L3.3,8.1c-.03-.53,.17-1.06,.53-1.45,.37-.39,.89-.61,1.42-.61H42.62c.54,0,1.06,.22,1.42,.61,.37,.39,.56,.92,.53,1.46l-2.37,40.63c-.17,2.85-2.53,5.08-5.38,5.08ZM42.58,7.99l-37.32,.04,2.24,40.57c.1,1.8,1.58,3.21,3.39,3.21h25.94c1.79,0,3.28-1.4,3.39-3.19l2.37-40.63Z"/>
      <path class="cls-1" d="M46.23,8.03H1c-.55,0-1-.45-1-1s.45-1,1-1H46.23c.55,0,1,.45,1,1s-.45,1-1,1Z"/>
      <path class="cls-1" d="M33.73,8.03H13.92v-3.61c0-2.44,1.98-4.42,4.42-4.42h10.96c2.44,0,4.42,1.98,4.42,4.42v3.61ZM15.92,6.03h15.8v-1.61c0-1.34-1.09-2.42-2.42-2.42h-10.96c-1.34,0-2.42,1.09-2.42,2.42v1.61Z"/>
      <path class="cls-1" d="M15.12,43.82c-.55,0-1-.45-1-1V17.83c0-.55,.45-1,1-1s1,.45,1,1v24.99c0,.55-.45,1-1,1Z"/>
      <path class="cls-1" d="M23.83,41.62c-.55,0-1-.45-1-1V20.03c0-.55,.45-1,1-1s1,.45,1,1v20.59c0,.55-.45,1-1,1Z"/>
      <path class="cls-1" d="M32.53,43.82c-.55,0-1-.45-1-1V17.83c0-.55,.45-1,1-1s1,.45,1,1v24.99c0,.55-.45,1-1,1Z"/>
    </g>
  </g>
</svg>