<?xml version="1.0" encoding="UTF-8"?>
<svg id="_Шар_2" data-name="Шар 2" xmlns="http://www.w3.org/2000/svg" viewBox="0 0 80.58 80.58">
  <defs>
    <style>
      .cls-1 {
        fill: #343436;
      }
    </style>
  </defs>
  <g id="_настройки_" data-name="настройки +">
    <g>
      <path class="cls-1" d="M40.29,80.58C18.07,80.58,0,62.5,0,40.29S18.07,0,40.29,0s40.29,18.07,40.29,40.29c0,5.87-1.23,11.52-3.66,16.81-.22,.47-.77,.68-1.25,.46-.47-.22-.68-.77-.46-1.25,2.32-5.04,3.49-10.43,3.49-16.03C78.7,19.11,61.47,1.88,40.29,1.88S1.88,19.11,1.88,40.29s17.23,38.41,38.41,38.41c10.58,0,20.79-4.43,28.03-12.15,.35-.38,.95-.4,1.33-.04,.38,.35,.4,.95,.04,1.33-7.59,8.1-18.31,12.74-29.4,12.74Z"/>
      <circle class="cls-1" cx="72.86" cy="62.06" r="1.04"/>
      <g>
        <path class="cls-1" d="M54.62,27.33c-.74-.75-1.49-1.49-2.24-2.23-1.72-1.69-4.28-1.69-5.99,.02-5.69,5.68-11.37,11.37-17.05,17.06-.15,.15-.26,.33-.33,.53-.45,1.3-.87,2.6-1.31,3.91-.71,2.12-1.41,4.24-2.11,6.37-.2,.6,.14,1.14,.72,1.16,.19,0,.39-.06,.58-.12,3.33-1.11,6.66-2.21,9.98-3.33,.25-.08,.48-.22,.66-.41,1.84-1.82,3.66-3.65,5.49-5.48,.87-.87,1.73-1.73,2.6-2.6,.27-.27,.26-.72-.04-.98,0,0,0,0,0,0-.09-.08-.17-.15-.25-.23-.26-.25-.68-.25-.94,0-2.52,2.52-5.05,5.05-7.56,7.56-1.89-1.89-3.81-3.81-5.71-5.71,4.8-4.8,9.63-9.64,14.46-14.46,1.9,1.9,3.82,3.82,5.71,5.71-.78,.78-1.56,1.56-2.34,2.34-.33,.33-.33,.87,0,1.21,0,0,0,0,.01,.01,.33,.33,.87,.34,1.21,0,1.46-1.46,2.92-2.92,4.38-4.37,.84-.84,1.26-1.84,1.29-3.03-.03-1.13-.41-2.12-1.22-2.92Zm-19.41,22.16c-2.47,.82-4.97,1.66-7.55,2.52,.86-2.57,1.7-5.07,2.52-7.54,1.68,1.68,3.35,3.35,5.03,5.03Zm18.27-17.5c-.29,.31-.61,.61-.9,.9-1.94-1.94-3.86-3.86-5.81-5.81,.39-.37,.78-.79,1.23-1.13,.92-.68,2.21-.61,3.05,.18,.85,.8,1.68,1.62,2.48,2.48,.89,.96,.85,2.42-.05,3.38Z"/>
        <circle class="cls-1" cx="47.25" cy="39.28" r=".82"/>
      </g>
    </g>
  </g>
</svg>