<?xml version="1.0" encoding="UTF-8"?>
<svg id="_Шар_2" data-name="Шар 2" xmlns="http://www.w3.org/2000/svg" viewBox="0 0 80.58 80.58">
  <defs>
    <style>
      .cls-1 {
        fill: #343436;
      }
    </style>
  </defs>
  <g id="_адреса" data-name="адреса">
    <g>
      <path class="cls-1" d="M40.29,80.58C18.07,80.58,0,62.5,0,40.29S18.07,0,40.29,0s40.29,18.07,40.29,40.29c0,5.87-1.23,11.52-3.66,16.81-.22,.47-.77,.68-1.25,.46-.47-.22-.68-.77-.46-1.25,2.32-5.04,3.49-10.43,3.49-16.03C78.7,19.11,61.47,1.88,40.29,1.88S1.88,19.11,1.88,40.29s17.23,38.41,38.41,38.41c10.58,0,20.79-4.43,28.03-12.15,.35-.38,.95-.4,1.33-.04,.38,.35,.4,.95,.04,1.33-7.59,8.1-18.31,12.74-29.4,12.74Z"/>
      <circle class="cls-1" cx="72.86" cy="62.06" r="1.04"/>
      <path class="cls-1" d="M55.84,38.72v.47c0,1.49-1.2,2.69-2.69,2.69h-9.22c-.2,0-.36,.16-.36,.36v9.22c0,1.49-1.2,2.69-2.69,2.69h-.47c-1.49,0-2.69-1.2-2.69-2.69v-9.22c0-.2-.16-.36-.36-.36h-9.15c-1.49,0-2.69-1.2-2.69-2.69v-.47c0-1.49,1.2-2.69,2.69-2.69h9.15c.2,0,.36-.16,.36-.36v-9.15c0-1.49,1.2-2.69,2.69-2.69h.47c1.49,0,2.69,1.2,2.69,2.69v9.15c0,.2,.16,.36,.36,.36h9.22c1.49,0,2.69,1.2,2.69,2.69Z"/>
    </g>
  </g>
</svg>