<?xml version="1.0" encoding="UTF-8"?>
<svg id="_Слой_2" data-name="Слой 2" xmlns="http://www.w3.org/2000/svg" viewBox="0 0 66.72 75.99">
  <defs>
    <style>
      .cls-1 {
        fill: #343436;
      }
    </style>
  </defs>
  <g id="_настройки_акк" data-name="настройки акк">
    <g>
      <path class="cls-1" d="M59.71,75.99H7.01c-3.86,0-7.01-3.14-7.01-7.01V36.13c0-3.86,3.14-7.01,7.01-7.01H59.71c3.86,0,7.01,3.14,7.01,7.01v32.85c0,3.86-3.14,7.01-7.01,7.01ZM7.01,31.36c-2.63,0-4.77,2.14-4.77,4.77v32.85c0,2.63,2.14,4.77,4.77,4.77H59.71c2.63,0,4.77-2.14,4.77-4.77V36.13c0-2.63-2.14-4.77-4.77-4.77H7.01Z"/>
      <path class="cls-1" d="M52.89,30.73H13.83v-12.12C13.83,8.35,22.18,0,32.44,0h1.83c7.45,0,14.16,4.42,17.1,11.26,.26,.61-.02,1.31-.63,1.57-.61,.26-1.31-.02-1.57-.63-2.56-5.96-8.41-9.82-14.9-9.82h-1.83c-8.94,0-16.21,7.27-16.21,16.21v9.72H50.49v-2.13c0-.66,.54-1.2,1.2-1.2s1.2,.54,1.2,1.2v4.53Z"/>
      <circle class="cls-1" cx="33.36" cy="53.14" r="4.95"/>
      <circle class="cls-1" cx="51.69" cy="18.41" r="2.03"/>
    </g>
  </g>
</svg>