<?xml version="1.0" encoding="UTF-8"?>
<svg id="_Слой_2" data-name="Слой 2" xmlns="http://www.w3.org/2000/svg" viewBox="0 0 66.49 79.83">
  <defs>
    <style>
      .cls-1 {
        fill: #343436;
      }
    </style>
  </defs>
  <g id="_настройки_акк" data-name="настройки акк">
    <g>
      <path class="cls-1" d="M63.41,69.88h-23.88c-.69,0-1.25-.56-1.25-1.25s.56-1.25,1.25-1.25h23.88c.33,0,.59-.27,.59-.59v-3.83c0-.13-.07-.24-.18-.3-5.69-2.81-9.46-8.49-9.84-14.8v-.06s-.03-2.93-.03-2.93c0-.69,.55-1.25,1.23-1.26h.01c.68,0,1.24,.55,1.25,1.23l.03,2.89c.34,5.41,3.57,10.27,8.45,12.69,.97,.48,1.57,1.45,1.57,2.53v3.83c0,1.7-1.38,3.09-3.09,3.09Z"/>
      <path class="cls-1" d="M26.91,69.88H3.09c-1.7,0-3.09-1.38-3.09-3.09v-3.83c0-1.08,.6-2.05,1.57-2.53,4.88-2.41,8.12-7.27,8.46-12.68l.03-14.45c0-12.55,10.21-22.75,22.76-22.75h.88c12.55,0,22.76,10.21,22.76,22.76v2.49c0,.69-.56,1.25-1.25,1.25s-1.25-.56-1.25-1.25v-2.49c0-11.17-9.09-20.26-20.26-20.26h-.88c-11.17,0-20.26,9.09-20.26,20.26l-.03,14.56c-.38,6.32-4.15,11.99-9.84,14.8-.11,.05-.18,.17-.18,.3v3.83c0,.33,.27,.59,.59,.59H26.91c.69,0,1.25,.56,1.25,1.25s-.56,1.25-1.25,1.25Z"/>
      <path class="cls-1" d="M39.93,13.03h-13.29V6.65c0-3.66,2.98-6.65,6.65-6.65,1.78,0,3.45,.69,4.7,1.95,1.25,1.25,1.94,2.92,1.94,4.7v6.39Zm-10.8-2.49h8.3v-3.89c0-1.11-.43-2.15-1.22-2.94-.78-.78-1.82-1.22-2.93-1.22-2.29,0-4.15,1.86-4.15,4.15v3.89Z"/>
      <path class="cls-1" d="M34.06,79.83h-1.37c-2.99,0-5.8-1.16-7.92-3.28-2.12-2.12-3.28-4.93-3.28-7.92v-1.25h2.81v2.49h-.23c.26,1.85,1.12,3.56,2.46,4.91,1.64,1.64,3.83,2.55,6.15,2.55h1.37c4.37,0,8.01-3.25,8.61-7.45h-1.23v-2.49h3.81v1.25c0,6.17-5.02,11.19-11.19,11.19Z"/>
      <circle class="cls-1" cx="33.25" cy="68.77" r="1.46"/>
      <circle class="cls-1" cx="55.2" cy="40.21" r="1.46"/>
    </g>
  </g>
</svg>