<?xml version="1.0" encoding="UTF-8"?>
<svg id="_Слой_2" data-name="Слой 2" xmlns="http://www.w3.org/2000/svg" viewBox="0 0 70.92 62.31">
  <defs>
    <style>
      .cls-1 {
        fill: #343436;
      }
    </style>
  </defs>
  <g id="_настройки_акк" data-name="настройки акк">
    <g>
      <path class="cls-1" d="M16.22,62.31c-.33,0-.65-.07-.96-.21-.75-.35-1.22-1.07-1.22-1.87v-9.31H5.27c-2.91,0-5.27-2.21-5.27-4.92V4.92C0,2.21,2.36,0,5.27,0h60.03c2.91,0,5.27,2.21,5.27,4.92V15.94c0,.59-.48,1.07-1.07,1.07s-1.07-.48-1.07-1.07V4.92c0-1.54-1.41-2.79-3.14-2.79H5.27c-1.73,0-3.14,1.25-3.14,2.79V46c0,1.54,1.41,2.79,3.14,2.79h10.9v11.38s.08,.02,.11,0l13.56-11.37h35.46c1.73,0,3.14-1.25,3.14-2.79V29.34c0-.59,.48-1.07,1.07-1.07s1.07,.48,1.07,1.07v16.66c0,2.71-2.36,4.92-5.27,4.92H30.62l-12.97,10.87c-.41,.34-.92,.51-1.43,.51Z"/>
      <circle class="cls-1" cx="69.51" cy="21.95" r="1.41"/>
      <path class="cls-1" d="M33.99,29.78c-.61,0-1.09-.54-1.01-1.14,.11-.86,.35-1.67,.72-2.42,.53-1.07,1.17-1.98,1.91-2.72,.74-.74,1.48-1.46,2.23-2.15,.74-.69,1.38-1.45,1.91-2.29s.8-1.73,.8-2.68c0-1.54-.52-2.7-1.57-3.48-1.05-.78-2.39-1.17-4.04-1.17-2.8,0-4.68,.99-5.64,2.96-.26,.54-.9,.77-1.42,.48l-.54-.3c-.47-.26-.65-.84-.42-1.33,.63-1.34,1.58-2.39,2.84-3.15,1.52-.91,3.25-1.37,5.19-1.37,2.33,0,4.31,.64,5.94,1.93,1.63,1.29,2.44,3.09,2.44,5.43,0,1.14-.27,2.2-.8,3.18-.53,.98-1.17,1.84-1.91,2.56-.74,.73-1.48,1.45-2.23,2.17-.74,.72-1.38,1.54-1.91,2.49-.31,.55-.53,1.11-.65,1.7-.17,.78-.9,1.31-1.69,1.31h-.15Zm1.86,7.32c-.42,.42-.94,.64-1.55,.64s-1.13-.21-1.55-.64c-.42-.42-.64-.94-.64-1.55s.21-1.13,.64-1.55c.42-.42,.94-.64,1.55-.64s1.13,.21,1.55,.64c.42,.42,.64,.94,.64,1.55s-.21,1.13-.64,1.55Z"/>
    </g>
  </g>
</svg>