<?xml version="1.0" encoding="UTF-8"?>
<svg id="_Слой_2" data-name="Слой 2" xmlns="http://www.w3.org/2000/svg" viewBox="0 0 70.92 62.31">
  <defs>
    <style>
      .cls-1 {
        fill: #343436;
      }
    </style>
  </defs>
  <g id="_настройки_акк" data-name="настройки акк">
    <g>
      <path class="cls-1" d="M16.22,62.31c-.33,0-.65-.07-.96-.21-.75-.35-1.22-1.07-1.22-1.87v-9.31H5.27c-2.91,0-5.27-2.21-5.27-4.92V4.92C0,2.21,2.36,0,5.27,0h60.03c2.91,0,5.27,2.21,5.27,4.92V15.94c0,.59-.48,1.07-1.07,1.07s-1.07-.48-1.07-1.07V4.92c0-1.54-1.41-2.79-3.14-2.79H5.27c-1.73,0-3.14,1.25-3.14,2.79V46c0,1.54,1.41,2.79,3.14,2.79h10.9v11.38s.08,.02,.11,0l13.56-11.37h35.46c1.73,0,3.14-1.25,3.14-2.79V29.34c0-.59,.48-1.07,1.07-1.07s1.07,.48,1.07,1.07v16.66c0,2.71-2.36,4.92-5.27,4.92H30.62l-12.97,10.87c-.41,.34-.92,.51-1.43,.51Z"/>
      <path class="cls-1" d="M62.62,13.73H9.59c-.59,0-1.07-.48-1.07-1.07s.48-1.07,1.07-1.07H62.62c.59,0,1.07,.48,1.07,1.07s-.48,1.07-1.07,1.07Z"/>
      <path class="cls-1" d="M32.46,26.23H9.59c-.59,0-1.07-.48-1.07-1.07s.48-1.07,1.07-1.07h22.87c.59,0,1.07,.48,1.07,1.07s-.48,1.07-1.07,1.07Z"/>
      <path class="cls-1" d="M52.72,38.74H9.59c-.59,0-1.07-.48-1.07-1.07s.48-1.07,1.07-1.07H52.72c.59,0,1.07,.48,1.07,1.07s-.48,1.07-1.07,1.07Z"/>
      <circle class="cls-1" cx="69.51" cy="21.95" r="1.41"/>
    </g>
  </g>
</svg>