<?xml version="1.0" encoding="UTF-8"?>
<svg id="_Слой_2" data-name="Слой 2" xmlns="http://www.w3.org/2000/svg" viewBox="0 0 74.04 52.97">
  <defs>
    <style>
      .cls-1 {
        fill: none;
      }

      .cls-2 {
        fill: #ccc;
      }
    </style>
  </defs>
  <g id="_погода" data-name="погода">
    <g>
      <path class="cls-1" d="M37.02,12.05c-11.33,0-22.66,0-33.99,0-.29,0-.59-.01-.88,.02-1.1,.12-1.97,.97-2.13,2.08-.15,1.01,.51,2.13,1.52,2.46,.44,.15,.94,.17,1.42,.17,22.71,0,45.42,0,68.14,0,.32,0,.64,0,.96-.06,1.11-.18,1.92-1.09,1.98-2.2,.06-1.01-.61-2.02-1.62-2.32-.42-.13-.89-.15-1.34-.15-11.36,0-22.71,0-34.07,0Zm0,28.87c11.44,0,22.87,0,34.31,0,1.59,0,2.68-.94,2.71-2.33,.03-1.4-1.08-2.39-2.71-2.41-.08,0-.16,0-.24,0-22.71,0-45.42,0-68.14,0-.32,0-.64,0-.96,.05-1.1,.18-1.92,1.09-1.99,2.2-.06,1.01,.6,2.02,1.61,2.33,.42,.13,.89,.15,1.34,.15,11.36,0,22.71,0,34.07,0ZM28.44,4.71c6.68,0,13.36,0,20.05,0,.32,0,.64,0,.96-.02,1.11-.1,1.96-.94,2.12-2.07,.14-1.01-.51-2.11-1.53-2.45-.39-.13-.84-.16-1.26-.16C35.25,0,21.73,0,8.2,0c-.21,0-.43,0-.64,.01-1.04,.1-1.89,.87-2.1,1.92-.19,.93,.26,2.01,1.16,2.43,.48,.23,1.07,.33,1.61,.34,6.74,.02,13.47,.01,20.21,.01Zm20.41,19.4c-3.66,0-7.32,0-10.99,0-2.14,0-4.28-.03-6.42,0-1.86,.03-2.99,1.83-2.17,3.43,.53,1.03,1.44,1.33,2.54,1.33,11.33,0,22.67,0,34,0,.21,0,.43,0,.64-.02,.94-.14,1.64-.62,2-1.52,.63-1.62-.56-3.21-2.44-3.21-5.72,0-11.44,0-17.16,0Zm-21.52,24.15c-4.35,0-8.71-.01-13.06,0-1.3,0-2.26,.9-2.4,2.13-.12,1.09,.63,2.19,1.74,2.48,.35,.09,.74,.09,1.11,.09,8.36,0,16.72,0,25.08,0,.21,0,.43,0,.64,0,1.32-.08,2.27-1.14,2.22-2.45-.05-1.32-1.06-2.24-2.51-2.25-4.27-.01-8.55,0-12.82,0Zm-11.31-24.15c-2.7,0-5.39-.01-8.09,0-1.45,0-2.5,1.04-2.5,2.37,0,1.3,1.02,2.36,2.42,2.37,5.39,.02,10.79,.02,16.18,0,.95,0,1.7-.44,2.14-1.3,.84-1.62-.32-3.42-2.23-3.44-2.64-.03-5.29,0-7.93,0Zm37.61,28.86c1.98,0,3.95,0,5.93,0,1.57,0,2.66-1,2.63-2.39-.03-1.37-1.08-2.31-2.63-2.31-3.95,0-7.91,0-11.86,0-1.53,0-2.59,.98-2.59,2.35,0,1.37,1.07,2.35,2.59,2.36,1.98,0,3.95,0,5.93,0ZM61.48,4.71c1.5,0,2.99,0,4.49,0,1.59,0,2.66-.97,2.64-2.38-.02-1.38-1.07-2.33-2.61-2.33-2.97,0-5.93,0-8.9,0-1.54,0-2.59,.96-2.6,2.34,0,1.37,1.04,2.36,2.57,2.37,1.47,.01,2.94,0,4.41,0Z"/>
      <path class="cls-2" d="M37.02,12.05c11.36,0,22.71,0,34.07,0,.45,0,.92,.02,1.34,.15,1.01,.31,1.68,1.32,1.62,2.32-.07,1.11-.88,2.02-1.98,2.2-.31,.05-.64,.06-.96,.06-22.71,0-45.42,0-68.14,0-.47,0-.97-.03-1.42-.17C.53,16.28-.12,15.16,.02,14.15c.16-1.11,1.03-1.96,2.13-2.08,.29-.03,.59-.02,.88-.02,11.33,0,22.66,0,33.99,0Z"/>
      <path class="cls-2" d="M37.02,40.92c-11.36,0-22.71,0-34.07,0-.45,0-.92-.02-1.34-.15-1.01-.31-1.68-1.32-1.61-2.33,.07-1.11,.89-2.02,1.99-2.2,.31-.05,.64-.05,.96-.05,22.71,0,45.42,0,68.14,0,.08,0,.16,0,.24,0,1.63,.02,2.75,1.01,2.71,2.41-.03,1.39-1.12,2.33-2.71,2.33-11.44,0-22.87,0-34.31,0Z"/>
      <path class="cls-2" d="M28.44,4.71c-6.74,0-13.47,0-20.21-.01-.54,0-1.13-.11-1.61-.34-.89-.42-1.35-1.5-1.16-2.43C5.68,.89,6.52,.12,7.56,.02c.21-.02,.43-.01,.64-.01,13.53,0,27.05,0,40.58,0,.42,0,.86,.03,1.26,.16,1.02,.34,1.68,1.44,1.53,2.45-.16,1.13-1.01,1.97-2.12,2.07-.32,.03-.64,.02-.96,.02-6.68,0-13.36,0-20.05,0Z"/>
      <path class="cls-2" d="M48.85,24.11c5.72,0,11.44,0,17.16,0,1.88,0,3.07,1.59,2.44,3.21-.35,.9-1.05,1.39-2,1.52-.21,.03-.43,.02-.64,.02-11.33,0-22.67,0-34,0-1.1,0-2.01-.3-2.54-1.33-.82-1.59,.31-3.39,2.17-3.43,2.14-.04,4.28,0,6.42,0,3.66,0,7.32,0,10.99,0Z"/>
      <path class="cls-2" d="M27.32,48.26c4.27,0,8.55,0,12.82,0,1.45,0,2.47,.93,2.51,2.25,.05,1.32-.91,2.37-2.22,2.45-.21,.01-.43,0-.64,0-8.36,0-16.72,0-25.08,0-.37,0-.76,0-1.11-.09-1.1-.29-1.85-1.39-1.74-2.48,.13-1.23,1.09-2.13,2.4-2.13,4.35-.02,8.71,0,13.06,0Z"/>
      <path class="cls-2" d="M20.79,25.1c1.05,0,2.1,0,3.15,.01,.58,0,1.07,.26,1.33,.7,.14,.23,.32,.7,.02,1.29-.27,.52-.67,.76-1.26,.76-2.82,0-5.65,.01-8.47,.01-2.57,0-5.13,0-7.7-.02-.81,0-1.42-.59-1.42-1.37,0-.8,.62-1.37,1.5-1.37,1.1,0,2.21-.01,3.31-.01h2.38s2.39,0,2.39,0c.8,0,1.59,0,2.39,0,.79,0,1.59,0,2.38,0m0-1c-1.59,0-3.18,0-4.77,0s-3.18,0-4.77,0c-1.11,0-2.21,0-3.32,.01-1.45,0-2.5,1.04-2.5,2.37,0,1.3,1.02,2.36,2.42,2.37,2.57,.01,5.13,.02,7.7,.02,2.83,0,5.65,0,8.48-.01,.95,0,1.7-.44,2.14-1.3,.84-1.62-.32-3.42-2.23-3.44-1.05-.01-2.11-.01-3.16-.01h0Z"/>
      <path class="cls-2" d="M53.63,49.26c1.98,0,3.95,0,5.93,0,.77,0,1.61,.35,1.63,1.33,0,.37-.11,.67-.34,.91-.29,.3-.75,.46-1.3,.47-.78,0-1.56,0-2.34,0h-1.79s-1.79,0-1.79,0h-1.78s-1.78,0-1.78,0c-.79,0-1.58,0-2.37,0-.97,0-1.59-.54-1.59-1.36,0-.82,.63-1.35,1.59-1.35,1.98,0,3.95,0,5.93,0m0-1c-1.98,0-3.95,0-5.93,0-1.53,0-2.59,.98-2.59,2.35,0,1.37,1.07,2.35,2.59,2.36,.79,0,1.58,0,2.37,0,1.19,0,2.37,0,3.56,0s2.39,0,3.59,0c.78,0,1.56,0,2.34,0,1.57,0,2.66-1,2.63-2.39-.03-1.37-1.08-2.31-2.63-2.31-1.98,0-3.95,0-5.93,0h0Z"/>
      <path class="cls-2" d="M61.56,1c1.48,0,2.96,0,4.45,0,.77,0,1.6,.35,1.61,1.34,0,.37-.11,.68-.34,.91-.29,.29-.75,.45-1.31,.46-.58,0-1.17,0-1.75,0h-1.36s-1.37,0-1.37,0h-1.34s-1.33,0-1.33,0c-.58,0-1.15,0-1.73,0-.96,0-1.58-.54-1.57-1.36,0-.99,.83-1.34,1.6-1.34,1.48,0,2.96,0,4.45,0m0-1c-1.48,0-2.97,0-4.45,0-1.54,0-2.59,.96-2.6,2.34,0,1.37,1.04,2.36,2.57,2.37,.58,0,1.16,0,1.74,0,.89,0,1.78,0,2.67,0s1.82,0,2.73,0c.59,0,1.17,0,1.76,0,1.59,0,2.66-.97,2.64-2.38-.02-1.38-1.07-2.33-2.61-2.33-1.48,0-2.97,0-4.45,0h0Z"/>
    </g>
  </g>
</svg>