<?xml version="1.0" encoding="UTF-8"?>
<svg id="_Слой_2" data-name="Слой 2" xmlns="http://www.w3.org/2000/svg" viewBox="0 0 83.98 84.48">
  <defs>
    <style>
      .cls-1 {
        fill: #4bb5f5;
      }

      .cls-2 {
        fill: #ccc;
      }
    </style>
  </defs>
  <g id="_погода" data-name="погода">
    <g>
      <path class="cls-1" d="M32.8,3h0c5.32,0,9.93,2.73,13.71,8.1l1.28,1.82,2.12-.7c.56-.19,1.12-.39,1.68-.6,1.08-.4,2.1-.77,3.07-.97,.73-.15,1.47-.23,2.21-.23,5.39,0,10.27,3.98,11.36,9.25,.47,2.3,2.05,3.08,3.28,3.33,5.6,1.12,9.67,6.3,9.46,12.05-.2,5.52-4.77,10.39-10.4,11.08-.62,.08-1.24,.11-1.84,.11h-4.46c-4.34,0-8.68,0-13.01,0-4.34,0-8.68,0-13.02,0-9.18,0-16.27,0-23.02,.03-6.8,0-11.5-5.19-12.11-10.21-.03-.22-.07-.42-.12-.58v-2.17c.02-.11,.04-.23,.07-.34,.07-.39,.15-.75,.23-1.06,1.36-4.84,4.29-7.68,9.24-8.95l.37-.09,.16-.04,2.12-.53,.15-2.18c.62-8.9,4.68-14.27,12.43-16.41,1.74-.48,3.43-.72,5.03-.72m0-3c-1.85,0-3.79,.27-5.83,.83-9.39,2.59-13.96,9.44-14.62,19.09-.14,.04-.35,.08-.56,.14C5.89,21.57,2.06,25.22,.41,31.11c-.18,.63-.27,1.27-.41,1.91v2.95c.05,.15,.12,.3,.14,.46,.83,6.85,7.03,12.84,15.09,12.84h.05c7.65-.03,15.31-.03,22.96-.03,8.68,0,17.35,0,26.03,0,1.49,0,2.98,0,4.46,0,.74,0,1.48-.05,2.2-.14,7.13-.87,12.77-6.92,13.03-13.94,.27-7.24-4.78-13.68-11.87-15.1-.63-.13-.82-.41-.94-.99-1.4-6.8-7.58-11.65-14.3-11.65-.93,0-1.88,.09-2.82,.29-1.74,.36-3.4,1.09-5.09,1.66C44.77,3.41,39.37,0,32.8,0h0Z"/>
      <g>
        <path class="cls-2" d="M13.27,54.72h0c.23,0,.47,.04,.7,.11,.57,.19,1.04,.58,1.31,1.12,.27,.54,.32,1.15,.14,1.72l-1.97,6.08c-.19,.57-.58,1.04-1.12,1.31-.32,.16-.67,.25-1.03,.25-.24,0-.47-.04-.7-.11-1.18-.38-1.83-1.66-1.45-2.84l1.97-6.08c.3-.93,1.16-1.56,2.15-1.56m0-1c-1.37,0-2.65,.88-3.1,2.25l-1.97,6.08c-.55,1.71,.38,3.55,2.1,4.1,.33,.11,.67,.16,1,.16,.52,0,1.03-.13,1.48-.36,.74-.38,1.34-1.04,1.62-1.9l1.97-6.08c.55-1.71-.38-3.55-2.1-4.1-.33-.11-.67-.16-1-.16h0Z"/>
        <path class="cls-2" d="M30.18,65.96c-.74,.38-1.63,.48-2.48,.2-1.71-.55-2.65-2.39-2.1-4.1l1.97-6.08c.55-1.71,2.39-2.65,4.1-2.1,1.71,.55,2.65,2.39,2.1,4.1l-1.97,6.08c-.28,.86-.87,1.52-1.62,1.9Z"/>
        <path class="cls-2" d="M48.06,54.72h0c.24,0,.47,.04,.7,.11,.57,.19,1.04,.58,1.31,1.12,.27,.54,.32,1.15,.14,1.72l-1.97,6.08c-.19,.57-.58,1.04-1.12,1.31-.32,.16-.67,.25-1.03,.25-.24,0-.47-.04-.7-.11-1.18-.38-1.83-1.66-1.45-2.84l1.97-6.08c.3-.93,1.17-1.56,2.15-1.56m0-1c-1.37,0-2.65,.88-3.1,2.25l-1.97,6.08c-.55,1.71,.38,3.55,2.1,4.1,.33,.11,.67,.16,1,.16,.52,0,1.03-.13,1.48-.36,.74-.38,1.34-1.04,1.62-1.9l1.97-6.08c.55-1.71-.38-3.55-2.1-4.1-.33-.11-.67-.16-1-.16h0Z"/>
        <path class="cls-2" d="M64.97,65.96c-.74,.38-1.63,.48-2.48,.2-1.71-.55-2.65-2.39-2.1-4.1l1.97-6.08c.55-1.71,2.39-2.65,4.1-2.1,1.71,.55,2.65,2.39,2.1,4.1l-1.97,6.08c-.28,.86-.87,1.52-1.62,1.9Z"/>
        <path class="cls-2" d="M19.44,84.12c-.74,.38-1.63,.48-2.48,.2-1.71-.55-2.65-2.39-2.1-4.1l1.97-6.08c.55-1.71,2.39-2.65,4.1-2.1,1.71,.55,2.65,2.39,2.1,4.1l-1.97,6.08c-.28,.86-.87,1.52-1.62,1.9Z"/>
        <path class="cls-2" d="M37.33,72.88h0c.23,0,.47,.04,.7,.11,.57,.19,1.04,.58,1.31,1.12,.27,.54,.32,1.15,.14,1.72l-1.97,6.08c-.19,.57-.58,1.04-1.12,1.31-.32,.16-.67,.25-1.03,.25-.24,0-.47-.04-.7-.11-1.18-.38-1.84-1.66-1.45-2.84l1.97-6.08c.3-.93,1.17-1.56,2.15-1.56m0-1c-1.37,0-2.65,.88-3.1,2.25l-1.97,6.08c-.55,1.71,.38,3.55,2.1,4.1,.33,.11,.67,.16,1,.16,.52,0,1.03-.13,1.48-.36,.74-.38,1.34-1.04,1.62-1.9l1.97-6.08c.55-1.71-.38-3.55-2.1-4.1-.33-.11-.67-.16-1-.16h0Z"/>
        <path class="cls-2" d="M54.24,84.12c-.74,.38-1.63,.48-2.48,.2-1.71-.55-2.65-2.39-2.1-4.1l1.97-6.08c.55-1.71,2.39-2.65,4.1-2.1,1.71,.55,2.65,2.39,2.1,4.1l-1.97,6.08c-.28,.86-.87,1.52-1.62,1.9Z"/>
      </g>
    </g>
  </g>
</svg>