<?xml version="1.0" encoding="UTF-8"?>
<svg id="_Слой_2" data-name="Слой 2" xmlns="http://www.w3.org/2000/svg" viewBox="0 0 75.57 85.97">
  <defs>
    <style>
      .cls-1 {
        fill: none;
        stroke: aqua;
        stroke-miterlimit: 10;
        stroke-width: 2px;
      }
    </style>
  </defs>
  <g id="_погода" data-name="погода">
    <path class="cls-1" d="M38.44,1.09c1.92,.65,2.69,1.99,2.64,4-.08,2.94-.02,5.89-.02,9.05,.3-.27,.49-.43,.66-.61,.97-.96,1.92-1.94,2.9-2.89,1.42-1.39,3.46-1.42,4.76-.1,1.31,1.33,1.26,3.33-.16,4.76-2.56,2.58-5.14,5.13-7.69,7.72-.24,.24-.45,.64-.45,.96-.03,4.29-.02,8.57-.02,12.86,0,.13,.02,.26,.03,.47,.3-.16,.54-.28,.76-.41,3.52-2.03,7.03-4.07,10.57-6.08,.5-.28,.75-.64,.89-1.17,.92-3.51,1.85-7.01,2.81-10.51,.52-1.88,2.27-2.88,4.04-2.38,1.77,.5,2.74,2.2,2.29,4.03-.36,1.43-.76,2.85-1.13,4.27-.05,.18-.07,.36-.12,.67,1.61-.93,3.12-1.8,4.62-2.66,1.21-.69,2.41-1.4,3.62-2.08,1.79-1.02,3.75-.56,4.69,1.08,.94,1.65,.36,3.55-1.44,4.6-2.45,1.43-4.91,2.84-7.37,4.26-.25,.14-.49,.3-.87,.53,1.75,.47,3.32,.87,4.88,1.32,1.6,.46,2.59,1.79,2.51,3.32-.07,1.56-1.2,2.87-2.78,3.08-.57,.08-1.2-.03-1.77-.18-3.43-.89-6.85-1.83-10.27-2.72-.33-.09-.79-.09-1.07,.07-3.75,2.13-7.47,4.29-11.2,6.45-.09,.05-.16,.12-.31,.23,.27,.18,.48,.33,.71,.46,3.52,2.03,7.05,4.05,10.55,6.1,.49,.29,.92,.33,1.46,.18,3.41-.94,6.84-1.86,10.26-2.77,2.05-.54,3.82,.41,4.3,2.29,.44,1.71-.48,3.38-2.22,3.92-1.61,.49-3.25,.9-5.04,1.39,.34,.22,.58,.37,.82,.51,2.53,1.46,5.07,2.89,7.58,4.39,2.05,1.22,2.26,3.92,.48,5.4-1.08,.89-2.48,.99-3.82,.22-2.51-1.43-5.01-2.89-7.51-4.33-.23-.13-.47-.26-.87-.47,.34,1.29,.63,2.43,.93,3.58,.13,.5,.3,.99,.4,1.5,.38,1.79-.64,3.45-2.38,3.92-1.7,.46-3.45-.53-3.96-2.29-.63-2.23-1.21-4.47-1.81-6.71-.37-1.39-.74-2.79-1.14-4.18-.07-.26-.26-.56-.48-.69-3.79-2.21-7.6-4.4-11.41-6.59-.04-.02-.1-.02-.25-.03v.71c0,4.12-.01,8.25,.02,12.37,0,.4,.21,.9,.5,1.19,2.56,2.61,5.18,5.17,7.74,7.78,1.79,1.83,1.08,4.75-1.31,5.47-1.26,.38-2.38,.08-3.31-.85-1.16-1.15-2.29-2.32-3.57-3.62-.03,.43-.06,.65-.06,.88,0,2.89,0,5.79,0,8.68,0,2.07-1.37,3.53-3.28,3.53-1.9,0-3.27-1.47-3.27-3.54,0-3.11,0-6.21,0-9.55-.71,.7-1.27,1.26-1.84,1.83-.58,.58-1.15,1.17-1.74,1.73-1.42,1.37-3.47,1.4-4.76,.06-1.28-1.32-1.24-3.31,.14-4.7,2.56-2.58,5.14-5.13,7.69-7.72,.23-.23,.49-.57,.49-.87,.03-4.45,.02-8.9,.02-13.46-.3,.15-.54,.25-.76,.38-3.54,2.04-7.09,4.08-10.62,6.16-.37,.22-.72,.67-.83,1.09-.98,3.52-1.89,7.05-2.87,10.58-.51,1.86-2.3,2.85-4.07,2.33-1.76-.53-2.7-2.21-2.23-4.06,.4-1.58,.83-3.15,1.31-4.92-.41,.23-.66,.37-.9,.51-2.55,1.47-5.09,2.96-7.66,4.4-1.38,.77-2.92,.5-3.97-.61-.98-1.04-1.22-2.66-.44-3.86,.34-.53,.86-1,1.4-1.32,2.43-1.46,4.9-2.85,7.36-4.27,.25-.15,.5-.3,.91-.56-1.76-.47-3.35-.87-4.93-1.33-1.58-.45-2.57-1.82-2.48-3.34,.09-1.55,1.24-2.85,2.81-3.06,.55-.07,1.14,.03,1.69,.17,3.46,.9,6.9,1.84,10.35,2.74,.29,.08,.68,.12,.92-.01,3.86-2.2,7.71-4.42,11.67-6.7-.26-.18-.44-.32-.63-.43-3.57-2.06-7.13-4.13-10.71-6.15-.37-.21-.94-.27-1.35-.17-3.46,.88-6.9,1.83-10.35,2.74-1.91,.5-3.61-.32-4.2-2-.66-1.86,.38-3.76,2.39-4.31,1.5-.41,3-.8,4.5-1.2,.05-.01,.09-.05,.24-.14-.29-.18-.53-.33-.77-.48-2.53-1.46-5.06-2.9-7.58-4.38-1.42-.83-2.01-2.39-1.52-3.87,.47-1.43,1.84-2.4,3.33-2.24,.58,.06,1.17,.29,1.68,.58,2.45,1.37,4.87,2.79,7.31,4.19,.26,.15,.52,.29,.95,.52-.42-1.57-.85-2.96-1.15-4.39-.16-.75-.28-1.58-.13-2.33,.28-1.41,1.61-2.37,3.04-2.39,1.52-.03,2.8,.89,3.23,2.4,.68,2.44,1.32,4.89,1.98,7.34,.31,1.16,.6,2.32,.95,3.47,.09,.3,.32,.64,.58,.8,3.69,2.16,7.41,4.3,11.11,6.44,.11,.06,.23,.11,.46,.22v-.8c0-4.12,.01-8.25-.02-12.37,0-.4-.23-.89-.51-1.18-2.56-2.61-5.18-5.17-7.74-7.78-1.79-1.82-1.05-4.75,1.34-5.46,1.22-.36,2.33-.09,3.25,.81,1,.97,1.97,1.97,2.96,2.95,.19,.19,.39,.36,.68,.63,.02-.38,.04-.64,.04-.9,0-2.7,.06-5.41-.02-8.11-.06-2.01,.72-3.36,2.64-4,.16-.05,.37-.09,.64-.09,.28,0,.51,.05,.67,.09Z"/>
  </g>
</svg>