<?xml version="1.0" encoding="UTF-8"?>
<svg id="_Слой_2" data-name="Слой 2" xmlns="http://www.w3.org/2000/svg" viewBox="0 0 82.61 82.61">
  <defs>
    <style>
      .cls-1 {
        fill: #fbb03b;
      }
    </style>
  </defs>
  <g id="_погода" data-name="погода">
    <g>
      <path class="cls-1" d="M41.37,24.07c9.39,0,17.03,7.64,17.03,17.03s-7.64,17.03-17.03,17.03-17.03-7.64-17.03-17.03,7.64-17.03,17.03-17.03m0-3c-11.06,0-20.03,8.97-20.03,20.03s8.97,20.03,20.03,20.03,20.03-8.97,20.03-20.03-8.97-20.03-20.03-20.03h0Z"/>
      <g>
        <path class="cls-1" d="M20.74,24.74c-1.05,0-2.1-.4-2.9-1.2l-5.69-5.69c-1.6-1.6-1.6-4.2,0-5.8,1.6-1.6,4.2-1.6,5.8,0l5.69,5.69c1.6,1.6,1.6,4.2,0,5.8-.8,.8-1.85,1.2-2.9,1.2Z"/>
        <path class="cls-1" d="M12.15,45.34H4.1c-2.27,0-4.1-1.84-4.1-4.1s1.84-4.1,4.1-4.1H12.15c2.27,0,4.1,1.84,4.1,4.1s-1.84,4.1-4.1,4.1Z"/>
        <path class="cls-1" d="M14.95,71.66c-1.05,0-2.1-.4-2.9-1.2-1.6-1.6-1.6-4.2,0-5.8l5.69-5.69c1.6-1.6,4.2-1.6,5.8,0,1.6,1.6,1.6,4.2,0,5.8l-5.69,5.69c-.8,.8-1.85,1.2-2.9,1.2Z"/>
        <path class="cls-1" d="M41.24,82.61c-2.27,0-4.1-1.84-4.1-4.1v-8.05c0-2.27,1.84-4.1,4.1-4.1s4.1,1.84,4.1,4.1v8.05c0,2.27-1.84,4.1-4.1,4.1Z"/>
        <path class="cls-1" d="M67.56,71.76c-1.05,0-2.1-.4-2.9-1.2l-5.69-5.69c-1.6-1.6-1.6-4.2,0-5.8,1.6-1.6,4.2-1.6,5.8,0l5.69,5.69c1.6,1.6,1.6,4.2,0,5.8-.8,.8-1.85,1.2-2.9,1.2Z"/>
        <path class="cls-1" d="M78.51,45.48h-8.05c-2.27,0-4.1-1.84-4.1-4.1s1.84-4.1,4.1-4.1h8.05c2.27,0,4.1,1.84,4.1,4.1s-1.84,4.1-4.1,4.1Z"/>
        <path class="cls-1" d="M61.97,24.84c-1.05,0-2.1-.4-2.9-1.2-1.6-1.6-1.6-4.2,0-5.8l5.69-5.69c1.6-1.6,4.2-1.6,5.8,0,1.6,1.6,1.6,4.2,0,5.8l-5.69,5.69c-.8,.8-1.85,1.2-2.9,1.2Z"/>
        <path class="cls-1" d="M41.37,16.25c-2.27,0-4.1-1.84-4.1-4.1V4.1c0-2.27,1.84-4.1,4.1-4.1s4.1,1.84,4.1,4.1V12.15c0,2.27-1.84,4.1-4.1,4.1Z"/>
      </g>
    </g>
  </g>
</svg>