<?xml version="1.0" encoding="UTF-8"?>
<svg id="_Слой_2" data-name="Слой 2" xmlns="http://www.w3.org/2000/svg" viewBox="0 0 83.68 73.76">
  <defs>
    <style>
      .cls-1 {
        fill: #4bb5f5;
      }

      .cls-2 {
        fill: #fbb03b;
      }
    </style>
  </defs>
  <g id="_погода" data-name="погода">
    <g>
      <path class="cls-2" d="M54.05,69.91c1.43-5,2.87-10,4.31-15-1.4,.11-2.81,.22-4.22,.33,.73-2.41,1.45-4.83,2.18-7.24h2.9c-.04,.55-.07,1.1-.11,1.65,1.88,.2,3.76,.41,5.64,.62-3.57,6.55-7.14,13.09-10.7,19.64Z"/>
      <path class="cls-2" d="M19.43,63.17c1.07-3.71,2.14-7.43,3.2-11.14-1.04,.08-2.08,.16-3.13,.24,.45-1.49,.9-2.98,1.35-4.48h2.36c0,.11,0,.23-.02,.34,1.4,.15,2.79,.3,4.18,.46-2.64,4.86-5.29,9.72-7.94,14.58Z"/>
      <path class="cls-2" d="M33.05,73.76c1.93-6.71,3.85-13.42,5.78-20.12-1.88,.14-3.77,.29-5.65,.43,.6-1.99,1.2-3.99,1.79-5.98h12.06c-4.67,8.55-9.32,17.12-13.98,25.67Z"/>
      <path class="cls-1" d="M32.68,3h0c5.29,0,9.89,2.71,13.65,8.06l1.28,1.82,2.12-.7c.56-.19,1.12-.39,1.67-.59,1.08-.39,2.09-.77,3.06-.97,.72-.15,1.46-.23,2.2-.23,5.37,0,10.23,3.96,11.3,9.21,.47,2.3,2.05,3.08,3.28,3.32,5.58,1.12,9.62,6.27,9.41,11.99-.2,5.5-4.75,10.34-10.35,11.02-.62,.08-1.24,.11-1.83,.11h-4.44c-4.34,0-8.68,0-13.02,0-4.34,0-8.68,0-13.03,0-9.1,0-16.12,.01-22.82,.03-6.77,0-11.45-5.17-12.06-10.16-.03-.22-.07-.42-.12-.58v-2.16c.02-.11,.04-.23,.07-.34,.07-.39,.14-.75,.23-1.06,1.35-4.82,4.27-7.65,9.19-8.9l.36-.09,.18-.04,2.12-.53,.15-2.18c.61-8.87,4.66-14.21,12.38-16.34,1.73-.48,3.42-.72,5.01-.72m0-3c-1.84,0-3.78,.27-5.8,.83-9.36,2.58-13.91,9.4-14.57,19.02-.14,.04-.35,.08-.56,.14C5.87,21.49,2.05,25.13,.41,30.99c-.17,.62-.27,1.27-.41,1.9v2.94c.05,.15,.12,.3,.14,.46,.83,6.83,7.01,12.8,15.03,12.8h.05c7.59-.03,15.17-.03,22.76-.03,8.68,0,17.37,0,26.05,0,1.48,0,2.96,0,4.45,0,.73,0,1.47-.05,2.2-.14,7.1-.87,12.73-6.9,12.98-13.89,.26-7.21-4.76-13.63-11.82-15.04-.63-.13-.81-.41-.93-.99-1.39-6.78-7.55-11.61-14.24-11.61-.93,0-1.87,.09-2.81,.29-1.73,.36-3.38,1.09-5.07,1.65C44.61,3.4,39.23,0,32.68,0h0Z"/>
    </g>
  </g>
</svg>