<?xml version="1.0" encoding="UTF-8"?>
<svg id="_Слой_2" data-name="Слой 2" xmlns="http://www.w3.org/2000/svg" viewBox="0 0 84.32 49.47">
  <defs>
    <style>
      .cls-1 {
        fill: #4bb5f5;
      }
    </style>
  </defs>
  <g id="_погода" data-name="погода">
    <path class="cls-1" d="M32.93,0V3c5.34,0,9.98,2.74,13.77,8.14l1.28,1.82,2.12-.7c.56-.19,1.13-.39,1.69-.6,1.08-.4,2.11-.77,3.09-.98,.73-.15,1.48-.23,2.22-.23,5.42,0,10.32,4,11.41,9.3,.47,2.3,2.05,3.08,3.29,3.33,5.63,1.13,9.72,6.33,9.5,12.11-.2,5.55-4.79,10.44-10.45,11.13-.62,.08-1.25,.12-1.85,.12h-4.43c-4.37,0-8.75,0-13.12,0-4.37,0-8.75,0-13.12,0-9.19,0-16.29,.01-23.05,.03-6.84,0-11.56-5.22-12.17-10.26-.03-.22-.07-.42-.12-.58v-2.18c.02-.12,.05-.23,.07-.35,.07-.39,.15-.76,.23-1.06,1.36-4.86,4.31-7.72,9.28-8.99l.39-.1,.14-.04,2.12-.52,.15-2.18c.62-8.94,4.7-14.34,12.49-16.48,1.75-.48,3.45-.73,5.05-.73V0m0,0c-1.86,0-3.81,.27-5.85,.84-9.43,2.6-14.01,9.48-14.68,19.17-.14,.04-.35,.09-.56,.14C5.91,21.66,2.07,25.32,.41,31.23c-.18,.63-.28,1.28-.41,1.92v2.96c.05,.15,.12,.31,.14,.46,.84,6.88,7.06,12.9,15.15,12.9h.05c7.67-.03,15.33-.03,23-.03,8.75,0,17.49,0,26.24,0,1.48,0,2.95,0,4.43,0,.74,0,1.48-.05,2.21-.14,7.15-.88,12.82-6.95,13.08-14,.27-7.27-4.8-13.73-11.91-15.16-.63-.13-.82-.41-.94-.99-1.4-6.83-7.61-11.7-14.35-11.7-.94,0-1.89,.09-2.83,.29-1.74,.36-3.41,1.1-5.11,1.66C44.95,3.43,39.53,0,32.93,0h0Z"/>
  </g>
</svg>